<svg version="1.1" viewBox="0.0 0.0 759.0 347.0" fill="none" stroke="none" stroke-linecap="square" stroke-miterlimit="10" width="759" height="347" xmlns:xlink="http://www.w3.org/1999/xlink" xmlns="http://www.w3.org/2000/svg"><path fill="#ffffff" d="M0 0L759.0 0L759.0 347.0L0 347.0L0 0Z" fill-rule="nonzero"/><path stroke="#cccccc" stroke-width="1.0" stroke-linecap="butt" d="M51.5 270.5L741.5 270.5" fill-rule="nonzero"/><path stroke="#cccccc" stroke-width="1.0" stroke-linecap="butt" d="M51.5 188.5L741.5 188.5" fill-rule="nonzero"/><path stroke="#cccccc" stroke-width="1.0" stroke-linecap="butt" d="M51.5 106.5L741.5 106.5" fill-rule="nonzero"/><path stroke="#cccccc" stroke-width="1.0" stroke-linecap="butt" d="M51.5 24.5L741.5 24.5" fill-rule="nonzero"/><clipPath id="id_0"><path d="M51.35 24.35L741.65 24.35L741.65 295.65L51.35 295.65L51.35 24.35Z" clip-rule="nonzero"/></clipPath><path stroke="#4285f4" stroke-width="2.0" stroke-linecap="butt" clip-path="url(#id_0)" d="M107.152695 274.67004L107.152695 295.65" fill-rule="nonzero"/><path stroke="#4285f4" stroke-width="2.0" stroke-linecap="butt" clip-path="url(#id_0)" d="M107.152695 295.65L107.152695 274.67004" fill-rule="nonzero"/><path fill="#4285f4" clip-path="url(#id_0)" d="M79.28473 273.67004L135.02066 273.67004L135.02066 296.65L79.28473 296.65L79.28473 273.67004Z" fill-rule="nonzero"/><path stroke="#4285f4" stroke-width="2.0" stroke-linecap="butt" clip-path="url(#id_0)" d="M189.82335 267.50748L189.82335 274.67004" fill-rule="nonzero"/><path stroke="#4285f4" stroke-width="2.0" stroke-linecap="butt" clip-path="url(#id_0)" d="M189.82335 274.67004L189.82335 267.50748" fill-rule="nonzero"/><path fill="#4285f4" clip-path="url(#id_0)" d="M161.95538 266.50748L217.69131 266.50748L217.69131 275.67004L161.95538 275.67004L161.95538 266.50748Z" fill-rule="nonzero"/><path stroke="#4285f4" stroke-width="2.0" stroke-linecap="butt" clip-path="url(#id_0)" d="M272.49402 221.42822L272.49402 231.6965" fill-rule="nonzero"/><path stroke="#4285f4" stroke-width="2.0" stroke-linecap="butt" clip-path="url(#id_0)" d="M272.49402 231.6965L272.49402 221.42822" fill-rule="nonzero"/><path fill="#4285f4" clip-path="url(#id_0)" d="M244.62605 220.42822L300.36197 220.42822L300.36197 232.6965L244.62605 232.6965L244.62605 220.42822Z" fill-rule="nonzero"/><path stroke="#4285f4" stroke-width="2.0" stroke-linecap="butt" clip-path="url(#id_0)" d="M355.16467 162.24088L355.16467 201.45378" fill-rule="nonzero"/><path stroke="#4285f4" stroke-width="2.0" stroke-linecap="butt" clip-path="url(#id_0)" d="M355.16467 201.45378L355.16467 162.24088" fill-rule="nonzero"/><path fill="#4285f4" clip-path="url(#id_0)" d="M327.2967 161.24088L383.03262 161.24088L383.03262 202.45378L327.2967 202.45378L327.2967 161.24088Z" fill-rule="nonzero"/><path stroke="#4285f4" stroke-width="2.0" stroke-linecap="butt" clip-path="url(#id_0)" d="M437.83533 182.21532L437.83533 188.72293" fill-rule="nonzero"/><path stroke="#4285f4" stroke-width="2.0" stroke-linecap="butt" clip-path="url(#id_0)" d="M437.83533 188.72293L437.83533 182.21532" fill-rule="nonzero"/><path fill="#4285f4" clip-path="url(#id_0)" d="M409.96738 181.21532L465.7033 181.21532L465.7033 189.72295L409.96738 189.72295L409.96738 181.21532Z" fill-rule="nonzero"/><path stroke="#4285f4" stroke-width="2.0" stroke-linecap="butt" clip-path="url(#id_0)" d="M520.506 119.26731L520.506 149.51003" fill-rule="nonzero"/><path stroke="#4285f4" stroke-width="2.0" stroke-linecap="butt" clip-path="url(#id_0)" d="M520.506 149.51003L520.506 119.26731" fill-rule="nonzero"/><path fill="#4285f4" clip-path="url(#id_0)" d="M492.63803 118.26731L548.37396 118.26731L548.37396 150.51003L492.63803 150.51003L492.63803 118.26731Z" fill-rule="nonzero"/><path stroke="#4285f4" stroke-width="2.0" stroke-linecap="butt" clip-path="url(#id_0)" d="M603.17664 92.06415L603.17664 106.53647" fill-rule="nonzero"/><path stroke="#4285f4" stroke-width="2.0" stroke-linecap="butt" clip-path="url(#id_0)" d="M603.17664 106.53647L603.17664 92.06415" fill-rule="nonzero"/><path fill="#4285f4" clip-path="url(#id_0)" d="M575.30865 91.06415L631.04456 91.06415L631.04456 107.53647L575.30865 107.53647L575.30865 91.06415Z" fill-rule="nonzero"/><path stroke="#4285f4" stroke-width="2.0" stroke-linecap="butt" clip-path="url(#id_0)" d="M685.8473 49.09059L685.8473 81.795876" fill-rule="nonzero"/><path stroke="#4285f4" stroke-width="2.0" stroke-linecap="butt" clip-path="url(#id_0)" d="M685.8473 81.795876L685.8473 49.09059" fill-rule="nonzero"/><path fill="#4285f4" clip-path="url(#id_0)" d="M657.9794 48.09059L713.7153 48.09059L713.7153 82.795876L657.9794 82.795876L657.9794 48.09059Z" fill-rule="nonzero"/><path fill="#000000" d="M42.81875 274.9094L41.771873 274.9094L41.771873 268.19064Q41.38125 268.55002 40.75625 268.92502Q40.146873 269.2844 39.6625 269.45627L39.6625 268.44064Q40.5375 268.01877 41.19375 267.44064Q41.865623 266.8469 42.146873 266.2844L42.81875 266.2844L42.81875 274.9094Z" fill-rule="nonzero"/><path fill="#000000" d="M35.81875 192.72293L34.771873 192.72293L34.771873 186.00418Q34.38125 186.36356 33.75625 186.73856Q33.146873 187.09793 32.6625 187.2698L32.6625 186.25418Q33.5375 185.8323 34.19375 185.25418Q34.865623 184.66043 35.146873 184.09793L35.81875 184.09793L35.81875 192.72293ZM38.85 188.48856Q38.85 186.9573 39.1625 186.03543Q39.475 185.09793 40.084373 184.59793Q40.709373 184.09793 41.646873 184.09793Q42.334373 184.09793 42.85 184.37918Q43.38125 184.66043 43.725 185.19168Q44.06875 185.7073 44.25625 186.4573Q44.44375 187.2073 44.44375 188.48856Q44.44375 190.00418 44.13125 190.92606Q43.834373 191.84793 43.209373 192.36356Q42.6 192.86356 41.646873 192.86356Q40.4125 192.86356 39.69375 191.97293Q38.85 190.91043 38.85 188.48856ZM39.928123 188.48856Q39.928123 190.59793 40.428123 191.30106Q40.928123 192.00418 41.646873 192.00418Q42.38125 192.00418 42.865623 191.30106Q43.365623 190.59793 43.365623 188.48856Q43.365623 186.36356 42.865623 185.67606Q42.38125 184.97293 41.63125 184.97293Q40.9125 184.97293 40.475 185.5823Q39.928123 186.36356 39.928123 188.48856Z" fill-rule="nonzero"/><path fill="#000000" d="M28.81875 110.53647L27.771875 110.53647L27.771875 103.81772Q27.38125 104.17709 26.75625 104.55209Q26.146875 104.91147 25.6625 105.08334L25.6625 104.06772Q26.5375 103.64584 27.19375 103.06772Q27.865625 102.47397 28.146875 101.91147L28.81875 101.91147L28.81875 110.53647ZM31.85 106.30209Q31.85 104.77084 32.1625 103.84897Q32.475 102.91147 33.084373 102.41147Q33.709373 101.91147 34.646873 101.91147Q35.334373 101.91147 35.85 102.19272Q36.38125 102.47397 36.725 103.00522Q37.06875 103.52084 37.25625 104.27084Q37.44375 105.02084 37.44375 106.30209Q37.44375 107.81772 37.13125 108.73959Q36.834373 109.66147 36.209373 110.17709Q35.6 110.67709 34.646873 110.67709Q33.4125 110.67709 32.69375 109.78647Q31.85 108.72397 31.85 106.30209ZM32.928123 106.30209Q32.928123 108.41147 33.428123 109.11459Q33.928123 109.81772 34.646873 109.81772Q35.38125 109.81772 35.865623 109.11459Q36.365623 108.41147 36.365623 106.30209Q36.365623 104.17709 35.865623 103.48959Q35.38125 102.78647 34.63125 102.78647Q33.9125 102.78647 33.475 103.39584Q32.928123 104.17709 32.928123 106.30209ZM38.85 106.30209Q38.85 104.77084 39.1625 103.84897Q39.475 102.91147 40.084373 102.41147Q40.709373 101.91147 41.646873 101.91147Q42.334373 101.91147 42.85 102.19272Q43.38125 102.47397 43.725 103.00522Q44.06875 103.52084 44.25625 104.27084Q44.44375 105.02084 44.44375 106.30209Q44.44375 107.81772 44.13125 108.73959Q43.834373 109.66147 43.209373 110.17709Q42.6 110.67709 41.646873 110.67709Q40.4125 110.67709 39.69375 109.78647Q38.85 108.72397 38.85 106.30209ZM39.928123 106.30209Q39.928123 108.41147 40.428123 109.11459Q40.928123 109.81772 41.646873 109.81772Q42.38125 109.81772 42.865623 109.11459Q43.365623 108.41147 43.365623 106.30209Q43.365623 104.17709 42.865623 103.48959Q42.38125 102.78647 41.63125 102.78647Q40.9125 102.78647 40.475 103.39584Q39.928123 104.17709 39.928123 106.30209Z" fill-rule="nonzero"/><path fill="#000000" d="M21.81875 28.35L20.771875 28.35L20.771875 21.63125Q20.38125 21.990625 19.75625 22.365625Q19.146875 22.725 18.6625 22.896875L18.6625 21.88125Q19.5375 21.459375 20.19375 20.88125Q20.865625 20.2875 21.146875 19.725L21.81875 19.725L21.81875 28.35ZM24.85 24.115625Q24.85 22.584375 25.1625 21.6625Q25.475 20.725 26.084375 20.225Q26.709375 19.725 27.646875 19.725Q28.334375 19.725 28.85 20.00625Q29.38125 20.2875 29.725 20.81875Q30.06875 21.334375 30.25625 22.084375Q30.44375 22.834375 30.44375 24.115625Q30.44375 25.63125 30.13125 26.553125Q29.834375 27.475 29.209375 27.990625Q28.6 28.490625 27.646875 28.490625Q26.4125 28.490625 25.69375 27.6Q24.85 26.5375 24.85 24.115625ZM25.928125 24.115625Q25.928125 26.225 26.428125 26.928125Q26.928125 27.63125 27.646875 27.63125Q28.38125 27.63125 28.865625 26.928125Q29.365625 26.225 29.365625 24.115625Q29.365625 21.990625 28.865625 21.303125Q28.38125 20.6 27.63125 20.6Q26.9125 20.6 26.475 21.209375Q25.928125 21.990625 25.928125 24.115625ZM31.85 24.115625Q31.85 22.584375 32.1625 21.6625Q32.475 20.725 33.084373 20.225Q33.709373 19.725 34.646873 19.725Q35.334373 19.725 35.85 20.00625Q36.38125 20.2875 36.725 20.81875Q37.06875 21.334375 37.25625 22.084375Q37.44375 22.834375 37.44375 24.115625Q37.44375 25.63125 37.13125 26.553125Q36.834373 27.475 36.209373 27.990625Q35.6 28.490625 34.646873 28.490625Q33.4125 28.490625 32.69375 27.6Q31.85 26.5375 31.85 24.115625ZM32.928123 24.115625Q32.928123 26.225 33.428123 26.928125Q33.928123 27.63125 34.646873 27.63125Q35.38125 27.63125 35.865623 26.928125Q36.365623 26.225 36.365623 24.115625Q36.365623 21.990625 35.865623 21.303125Q35.38125 20.6 34.63125 20.6Q33.9125 20.6 33.475 21.209375Q32.928123 21.990625 32.928123 24.115625ZM38.85 24.115625Q38.85 22.584375 39.1625 21.6625Q39.475 20.725 40.084373 20.225Q40.709373 19.725 41.646873 19.725Q42.334373 19.725 42.85 20.00625Q43.38125 20.2875 43.725 20.81875Q44.06875 21.334375 44.25625 22.084375Q44.44375 22.834375 44.44375 24.115625Q44.44375 25.63125 44.13125 26.553125Q43.834373 27.475 43.209373 27.990625Q42.6 28.490625 41.646873 28.490625Q40.4125 28.490625 39.69375 27.6Q38.85 26.5375 38.85 24.115625ZM39.928123 24.115625Q39.928123 26.225 40.428123 26.928125Q40.928123 27.63125 41.646873 27.63125Q42.38125 27.63125 42.865623 26.928125Q43.365623 26.225 43.365623 24.115625Q43.365623 21.990625 42.865623 21.303125Q42.38125 20.6 41.63125 20.6Q40.9125 20.6 40.475 21.209375Q39.928123 21.990625 39.928123 24.115625Z" fill-rule="nonzero"/><path fill="#000000" d="M85.090195 312.65L85.090195 304.05624L88.902695 304.05624Q90.058945 304.05624 90.652695 304.29062Q91.246445 304.525 91.60582 305.11874Q91.965195 305.69687 91.965195 306.4Q91.965195 307.32187 91.371445 307.94687Q90.777695 308.57187 89.54332 308.74374Q89.996445 308.9625 90.23082 309.16562Q90.73082 309.61874 91.16832 310.30624L92.66832 312.65L91.23082 312.65L90.10582 310.86874Q89.60582 310.0875 89.277695 309.68124Q88.965195 309.275 88.69957 309.11874Q88.44957 308.94687 88.183945 308.86874Q87.996445 308.8375 87.558945 308.8375L86.23082 308.8375L86.23082 312.65L85.090195 312.65ZM86.23082 307.85312L88.683945 307.85312Q89.44957 307.85312 89.88707 307.69687Q90.340195 307.525 90.558945 307.18124Q90.79332 306.82187 90.79332 306.4Q90.79332 305.79062 90.340195 305.4Q89.902695 305.00937 88.94957 305.00937L86.23082 305.00937L86.23082 307.85312ZM98.19957 310.65L99.29332 310.775Q99.04332 311.72812 98.340195 312.25937Q97.63707 312.79062 96.558945 312.79062Q95.19957 312.79062 94.38707 311.94687Q93.590195 311.10312 93.590195 309.5875Q93.590195 308.025 94.402695 307.16562Q95.215195 306.29062 96.496445 306.29062Q97.746445 306.29062 98.527695 307.13437Q99.32457 307.97812 99.32457 309.525Q99.32457 309.61874 99.32457 309.80624L94.683945 309.80624Q94.746445 310.8375 95.26207 311.38437Q95.777695 311.91562 96.558945 311.91562Q97.13707 311.91562 97.54332 311.61874Q97.965195 311.30624 98.19957 310.65ZM94.746445 308.94687L98.215195 308.94687Q98.152695 308.15 97.82457 307.75937Q97.308945 307.15 96.51207 307.15Q95.777695 307.15 95.277695 307.63437Q94.79332 308.11874 94.746445 308.94687ZM100.746445 313.16562L101.777695 313.32187Q101.840195 313.79062 102.13707 314.00937Q102.527695 314.30624 103.19957 314.30624Q103.933945 314.30624 104.32457 314.00937Q104.73082 313.7125 104.871445 313.19687Q104.965195 312.86874 104.94957 311.8375Q104.26207 312.65 103.23082 312.65Q101.94957 312.65 101.246445 311.72812Q100.54332 310.79062 100.54332 309.50937Q100.54332 308.61874 100.85582 307.86874Q101.183945 307.10312 101.79332 306.69687Q102.402695 306.29062 103.23082 306.29062Q104.340195 306.29062 105.058945 307.18124L105.058945 306.43124L106.027695 306.43124L106.027695 311.80624Q106.027695 313.25937 105.73082 313.86874Q105.433945 314.47812 104.79332 314.82187Q104.152695 315.18124 103.215195 315.18124Q102.10582 315.18124 101.41832 314.68124Q100.73082 314.18124 100.746445 313.16562ZM101.621445 309.43124Q101.621445 310.65 102.10582 311.2125Q102.590195 311.775 103.32457 311.775Q104.058945 311.775 104.54332 311.2125Q105.04332 310.65 105.04332 309.4625Q105.04332 308.32187 104.527695 307.74374Q104.027695 307.16562 103.308945 307.16562Q102.60582 307.16562 102.10582 307.74374Q101.621445 308.30624 101.621445 309.43124ZM107.94957 305.275L107.94957 304.05624L109.01207 304.05624L109.01207 305.275L107.94957 305.275ZM107.94957 312.65L107.94957 306.43124L109.01207 306.43124L109.01207 312.65L107.94957 312.65ZM110.527695 310.79062L111.558945 310.63437Q111.652695 311.25937 112.04332 311.5875Q112.44957 311.91562 113.183945 311.91562Q113.902695 311.91562 114.246445 311.63437Q114.60582 311.3375 114.60582 310.93124Q114.60582 310.57187 114.29332 310.36874Q114.07457 310.22812 113.215195 310.00937Q112.058945 309.7125 111.60582 309.50937Q111.16832 309.29062 110.933945 308.91562Q110.69957 308.54062 110.69957 308.07187Q110.69957 307.66562 110.88707 307.30624Q111.07457 306.94687 111.402695 306.7125Q111.652695 306.54062 112.07457 306.41562Q112.496445 306.29062 112.996445 306.29062Q113.715195 306.29062 114.26207 306.50937Q114.82457 306.7125 115.090195 307.07187Q115.35582 307.43124 115.44957 308.025L114.41832 308.16562Q114.35582 307.69687 114.01207 307.43124Q113.683945 307.15 113.058945 307.15Q112.340195 307.15 112.027695 307.4Q111.715195 307.63437 111.715195 307.9625Q111.715195 308.16562 111.840195 308.32187Q111.98082 308.49374 112.246445 308.60312Q112.402695 308.66562 113.183945 308.86874Q114.308945 309.18124 114.746445 309.36874Q115.183945 309.55624 115.433945 309.91562Q115.683945 310.275 115.683945 310.82187Q115.683945 311.35312 115.371445 311.82187Q115.07457 312.275 114.496445 312.54062Q113.91832 312.79062 113.183945 312.79062Q111.965195 312.79062 111.32457 312.29062Q110.69957 311.775 110.527695 310.79062ZM119.246445 311.7125L119.402695 312.63437Q118.94957 312.72812 118.60582 312.72812Q118.027695 312.72812 117.715195 312.55624Q117.402695 312.36874 117.26207 312.07187Q117.13707 311.775 117.13707 310.82187L117.13707 307.24374L116.371445 307.24374L116.371445 306.43124L117.13707 306.43124L117.13707 304.88437L118.183945 304.25937L118.183945 306.43124L119.246445 306.43124L119.246445 307.24374L118.183945 307.24374L118.183945 310.88437Q118.183945 311.3375 118.23082 311.4625Q118.29332 311.5875 118.41832 311.66562Q118.54332 311.74374 118.777695 311.74374Q118.965195 311.74374 119.246445 311.7125ZM124.19957 310.65L125.29332 310.775Q125.04332 311.72812 124.340195 312.25937Q123.63707 312.79062 122.558945 312.79062Q121.19957 312.79062 120.38707 311.94687Q119.590195 311.10312 119.590195 309.5875Q119.590195 308.025 120.402695 307.16562Q121.215195 306.29062 122.496445 306.29062Q123.746445 306.29062 124.527695 307.13437Q125.32457 307.97812 125.32457 309.525Q125.32457 309.61874 125.32457 309.80624L120.683945 309.80624Q120.746445 310.8375 121.26207 311.38437Q121.777695 311.91562 122.558945 311.91562Q123.13707 311.91562 123.54332 311.61874Q123.965195 311.30624 124.19957 310.65ZM120.746445 308.94687L124.215195 308.94687Q124.152695 308.15 123.82457 307.75937Q123.308945 307.15 122.51207 307.15Q121.777695 307.15 121.277695 307.63437Q120.79332 308.11874 120.746445 308.94687ZM126.933945 312.65L126.933945 306.43124L127.88707 306.43124L127.88707 307.36874Q128.24644 306.7125 128.54332 306.50937Q128.85582 306.29062 129.23082 306.29062Q129.76207 306.29062 130.30894 306.61874L129.94957 307.60312Q129.55894 307.36874 129.18394 307.36874Q128.82457 307.36874 128.54332 307.5875Q128.2777 307.79062 128.16832 308.16562Q127.98082 308.72812 127.98082 309.38437L127.98082 312.65L126.933945 312.65Z" fill-rule="nonzero"/><path fill="#000000" d="M87.76207 326.65L87.76207 319.07187L84.933945 319.07187L84.933945 318.05624L91.746445 318.05624L91.746445 319.07187L88.902695 319.07187L88.902695 326.65L87.76207 326.65ZM92.433945 326.65L92.433945 320.43124L93.38707 320.43124L93.38707 321.36874Q93.746445 320.7125 94.04332 320.50937Q94.35582 320.29062 94.73082 320.29062Q95.26207 320.29062 95.808945 320.61874L95.44957 321.60312Q95.058945 321.36874 94.683945 321.36874Q94.32457 321.36874 94.04332 321.5875Q93.777695 321.79062 93.66832 322.16562Q93.48082 322.72812 93.48082 323.38437L93.48082 326.65L92.433945 326.65ZM100.51207 325.88437Q99.91832 326.38437 99.371445 326.5875Q98.840195 326.79062 98.215195 326.79062Q97.183945 326.79062 96.63707 326.29062Q96.090195 325.79062 96.090195 325.00937Q96.090195 324.55624 96.29332 324.18124Q96.496445 323.79062 96.840195 323.57187Q97.183945 323.3375 97.60582 323.22812Q97.902695 323.13437 98.54332 323.05624Q99.808945 322.91562 100.41832 322.69687Q100.41832 322.47812 100.41832 322.43124Q100.41832 321.775 100.121445 321.50937Q99.715195 321.16562 98.91832 321.16562Q98.183945 321.16562 97.82457 321.43124Q97.465195 321.68124 97.29332 322.3375L96.26207 322.19687Q96.402695 321.54062 96.73082 321.13437Q97.058945 320.72812 97.66832 320.50937Q98.277695 320.29062 99.07457 320.29062Q99.871445 320.29062 100.371445 320.47812Q100.871445 320.66562 101.10582 320.94687Q101.340195 321.22812 101.433945 321.66562Q101.48082 321.93124 101.48082 322.63437L101.48082 324.04062Q101.48082 325.50937 101.54332 325.9Q101.621445 326.29062 101.82457 326.65L100.715195 326.65Q100.558945 326.32187 100.51207 325.88437ZM100.41832 323.525Q99.840195 323.75937 98.69957 323.93124Q98.04332 324.025 97.777695 324.15Q97.51207 324.25937 97.35582 324.47812Q97.215195 324.69687 97.215195 324.97812Q97.215195 325.4 97.527695 325.68124Q97.85582 325.9625 98.465195 325.9625Q99.07457 325.9625 99.54332 325.69687Q100.027695 325.43124 100.246445 324.9625Q100.41832 324.60312 100.41832 323.91562L100.41832 323.525ZM103.44957 326.65L103.44957 320.43124L104.38707 320.43124L104.38707 321.30624Q105.07457 320.29062 106.371445 320.29062Q106.933945 320.29062 107.402695 320.49374Q107.88707 320.69687 108.121445 321.025Q108.35582 321.35312 108.44957 321.79062Q108.496445 322.0875 108.496445 322.82187L108.496445 326.65L107.44957 326.65L107.44957 322.86874Q107.44957 322.2125 107.32457 321.9Q107.19957 321.5875 106.88707 321.4Q106.57457 321.19687 106.152695 321.19687Q105.48082 321.19687 104.98082 321.63437Q104.496445 322.05624 104.496445 323.24374L104.496445 326.65L103.44957 326.65ZM110.027695 324.79062L111.058945 324.63437Q111.152695 325.25937 111.54332 325.5875Q111.94957 325.91562 112.683945 325.91562Q113.402695 325.91562 113.746445 325.63437Q114.10582 325.3375 114.10582 324.93124Q114.10582 324.57187 113.79332 324.36874Q113.57457 324.22812 112.715195 324.00937Q111.558945 323.7125 111.10582 323.50937Q110.66832 323.29062 110.433945 322.91562Q110.19957 322.54062 110.19957 322.07187Q110.19957 321.66562 110.38707 321.30624Q110.57457 320.94687 110.902695 320.7125Q111.152695 320.54062 111.57457 320.41562Q111.996445 320.29062 112.496445 320.29062Q113.215195 320.29062 113.76207 320.50937Q114.32457 320.7125 114.590195 321.07187Q114.85582 321.43124 114.94957 322.025L113.91832 322.16562Q113.85582 321.69687 113.51207 321.43124Q113.183945 321.15 112.558945 321.15Q111.840195 321.15 111.527695 321.4Q111.215195 321.63437 111.215195 321.9625Q111.215195 322.16562 111.340195 322.32187Q111.48082 322.49374 111.746445 322.60312Q111.902695 322.66562 112.683945 322.86874Q113.808945 323.18124 114.246445 323.36874Q114.683945 323.55624 114.933945 323.91562Q115.183945 324.275 115.183945 324.82187Q115.183945 325.35312 114.871445 325.82187Q114.57457 326.275 113.996445 326.54062Q113.41832 326.79062 112.683945 326.79062Q111.465195 326.79062 110.82457 326.29062Q110.19957 325.775 110.027695 324.79062ZM116.69957 326.65L116.69957 321.24374L115.76207 321.24374L115.76207 320.43124L116.69957 320.43124L116.69957 319.75937Q116.69957 319.13437 116.808945 318.8375Q116.965195 318.41562 117.340195 318.16562Q117.73082 317.91562 118.41832 317.91562Q118.871445 317.91562 119.402695 318.025L119.246445 318.93124Q118.91832 318.88437 118.621445 318.88437Q118.13707 318.88437 117.933945 319.0875Q117.746445 319.29062 117.746445 319.85312L117.746445 320.43124L118.965195 320.43124L118.965195 321.24374L117.746445 321.24374L117.746445 326.65L116.69957 326.65ZM123.69957 324.65L124.79332 324.775Q124.54332 325.72812 123.840195 326.25937Q123.13707 326.79062 122.058945 326.79062Q120.69957 326.79062 119.88707 325.94687Q119.090195 325.10312 119.090195 323.5875Q119.090195 322.025 119.902695 321.16562Q120.715195 320.29062 121.996445 320.29062Q123.246445 320.29062 124.027695 321.13437Q124.82457 321.97812 124.82457 323.525Q124.82457 323.61874 124.82457 323.80624L120.183945 323.80624Q120.246445 324.8375 120.76207 325.38437Q121.277695 325.91562 122.058945 325.91562Q122.63707 325.91562 123.04332 325.61874Q123.465195 325.30624 123.69957 324.65ZM120.246445 322.94687L123.715195 322.94687Q123.652695 322.15 123.32457 321.75937Q122.808945 321.15 122.01207 321.15Q121.277695 321.15 120.777695 321.63437Q120.29332 322.11874 120.246445 322.94687ZM126.433945 326.65L126.433945 320.43124L127.38707 320.43124L127.38707 321.36874Q127.746445 320.7125 128.04332 320.50937Q128.35582 320.29062 128.73082 320.29062Q129.26207 320.29062 129.80894 320.61874L129.44957 321.60312Q129.05894 321.36874 128.68394 321.36874Q128.32457 321.36874 128.04332 321.5875Q127.777695 321.79062 127.66832 322.16562Q127.48082 322.72812 127.48082 323.38437L127.48082 326.65L126.433945 326.65Z" fill-rule="nonzero"/><path fill="#000000" d="M168.71397 312.65L168.71397 304.05624L170.43272 304.05624L172.46397 310.13437Q172.74522 310.99374 172.87022 311.41562Q173.01085 310.94687 173.32335 310.04062L175.38585 304.05624L176.9171 304.05624L176.9171 312.65L175.82335 312.65L175.82335 305.4625L173.32335 312.65L172.2921 312.65L169.80772 305.3375L169.80772 312.65L168.71397 312.65ZM182.87022 310.65L183.96397 310.775Q183.71397 311.72812 183.01085 312.25937Q182.30772 312.79062 181.2296 312.79062Q179.87022 312.79062 179.05772 311.94687Q178.26085 311.10312 178.26085 309.5875Q178.26085 308.025 179.07335 307.16562Q179.88585 306.29062 181.1671 306.29062Q182.4171 306.29062 183.19835 307.13437Q183.99522 307.97812 183.99522 309.525Q183.99522 309.61874 183.99522 309.80624L179.3546 309.80624Q179.4171 310.8375 179.93272 311.38437Q180.44835 311.91562 181.2296 311.91562Q181.80772 311.91562 182.21397 311.61874Q182.63585 311.30624 182.87022 310.65ZM179.4171 308.94687L182.88585 308.94687Q182.82335 308.15 182.49522 307.75937Q181.9796 307.15 181.18272 307.15Q180.44835 307.15 179.94835 307.63437Q179.46397 308.11874 179.4171 308.94687ZM185.62022 312.65L185.62022 306.43124L186.55772 306.43124L186.55772 307.30624Q186.8546 306.8375 187.33897 306.57187Q187.82335 306.29062 188.44835 306.29062Q189.13585 306.29062 189.57335 306.57187Q190.02647 306.85312 190.19835 307.36874Q190.94835 306.29062 192.12022 306.29062Q193.05772 306.29062 193.5421 306.80624Q194.0421 307.30624 194.0421 308.38437L194.0421 312.65L192.99522 312.65L192.99522 308.72812Q192.99522 308.10312 192.88585 307.82187Q192.7921 307.54062 192.52647 307.36874Q192.26085 307.19687 191.88585 307.19687Q191.2296 307.19687 190.7921 307.63437Q190.37022 308.07187 190.37022 309.04062L190.37022 312.65L189.30772 312.65L189.30772 308.60312Q189.30772 307.9 189.0421 307.55624Q188.7921 307.19687 188.21397 307.19687Q187.76085 307.19687 187.38585 307.43124Q187.01085 307.66562 186.83897 308.11874Q186.6671 308.57187 186.6671 309.41562L186.6671 312.65L185.62022 312.65ZM195.2296 309.54062Q195.2296 307.80624 196.18272 306.97812Q196.9796 306.29062 198.13585 306.29062Q199.4171 306.29062 200.2296 307.13437Q201.05772 307.9625 201.05772 309.44687Q201.05772 310.65 200.69835 311.3375Q200.33897 312.025 199.63585 312.41562Q198.94835 312.79062 198.13585 312.79062Q196.83897 312.79062 196.02647 311.9625Q195.2296 311.11874 195.2296 309.54062ZM196.30772 309.54062Q196.30772 310.72812 196.82335 311.32187Q197.3546 311.91562 198.13585 311.91562Q198.93272 311.91562 199.44835 311.32187Q199.96397 310.72812 199.96397 309.50937Q199.96397 308.35312 199.43272 307.75937Q198.9171 307.16562 198.13585 307.16562Q197.3546 307.16562 196.82335 307.75937Q196.30772 308.3375 196.30772 309.54062ZM202.6046 312.65L202.6046 306.43124L203.55772 306.43124L203.55772 307.36874Q203.9171 306.7125 204.21397 306.50937Q204.52647 306.29062 204.90147 306.29062Q205.43272 306.29062 205.9796 306.61874L205.62022 307.60312Q205.2296 307.36874 204.8546 307.36874Q204.49522 307.36874 204.21397 307.5875Q203.94835 307.79062 203.83897 308.16562Q203.65147 308.72812 203.65147 309.38437L203.65147 312.65L202.6046 312.65ZM206.57335 315.04062L206.44835 314.05624Q206.7921 314.15 207.05772 314.15Q207.40147 314.15 207.6046 314.025Q207.82335 313.91562 207.96397 313.7125Q208.05772 313.54062 208.2921 312.91562Q208.30772 312.8375 208.38585 312.66562L206.01085 306.43124L207.15147 306.43124L208.44835 310.025Q208.69835 310.7125 208.90147 311.47812Q209.08897 310.74374 209.33897 310.05624L210.6671 306.43124L211.71397 306.43124L209.3546 312.75937Q208.96397 313.775 208.76085 314.16562Q208.4796 314.69687 208.1046 314.93124Q207.74522 315.18124 207.24522 315.18124Q206.94835 315.18124 206.57335 315.04062Z" fill-rule="nonzero"/><path fill="#000000" d="M178.24522 326.65L175.96397 318.05624L177.13585 318.05624L178.44835 323.69687Q178.65147 324.57187 178.80772 325.44687Q179.13585 324.07187 179.19835 323.85312L180.82335 318.05624L182.19835 318.05624L183.43272 322.4Q183.88585 324.025 184.1046 325.44687Q184.26085 324.63437 184.52647 323.57187L185.87022 318.05624L187.01085 318.05624L184.6671 326.65L183.55772 326.65L181.76085 320.10312Q181.52647 319.29062 181.4796 319.10312Q181.3546 319.68124 181.2296 320.10312L179.4171 326.65L178.24522 326.65ZM187.6046 326.65L187.6046 320.43124L188.55772 320.43124L188.55772 321.36874Q188.9171 320.7125 189.21397 320.50937Q189.52647 320.29062 189.90147 320.29062Q190.43272 320.29062 190.9796 320.61874L190.62022 321.60312Q190.2296 321.36874 189.8546 321.36874Q189.49522 321.36874 189.21397 321.5875Q188.94835 321.79062 188.83897 322.16562Q188.65147 322.72812 188.65147 323.38437L188.65147 326.65L187.6046 326.65ZM191.62022 319.275L191.62022 318.05624L192.68272 318.05624L192.68272 319.275L191.62022 319.275ZM191.62022 326.65L191.62022 320.43124L192.68272 320.43124L192.68272 326.65L191.62022 326.65ZM196.9171 325.7125L197.07335 326.63437Q196.62022 326.72812 196.27647 326.72812Q195.69835 326.72812 195.38585 326.55624Q195.07335 326.36874 194.93272 326.07187Q194.80772 325.775 194.80772 324.82187L194.80772 321.24374L194.0421 321.24374L194.0421 320.43124L194.80772 320.43124L194.80772 318.88437L195.8546 318.25937L195.8546 320.43124L196.9171 320.43124L196.9171 321.24374L195.8546 321.24374L195.8546 324.88437Q195.8546 325.3375 195.90147 325.4625Q195.96397 325.5875 196.08897 325.66562Q196.21397 325.74374 196.44835 325.74374Q196.63585 325.74374 196.9171 325.7125ZM201.87022 324.65L202.96397 324.775Q202.71397 325.72812 202.01085 326.25937Q201.30772 326.79062 200.2296 326.79062Q198.87022 326.79062 198.05772 325.94687Q197.26085 325.10312 197.26085 323.5875Q197.26085 322.025 198.07335 321.16562Q198.88585 320.29062 200.1671 320.29062Q201.4171 320.29062 202.19835 321.13437Q202.99522 321.97812 202.99522 323.525Q202.99522 323.61874 202.99522 323.80624L198.3546 323.80624Q198.4171 324.8375 198.93272 325.38437Q199.44835 325.91562 200.2296 325.91562Q200.80772 325.91562 201.21397 325.61874Q201.63585 325.30624 201.87022 324.65ZM198.4171 322.94687L201.88585 322.94687Q201.82335 322.15 201.49522 321.75937Q200.9796 321.15 200.18272 321.15Q199.44835 321.15 198.94835 321.63437Q198.46397 322.11874 198.4171 322.94687Z" fill-rule="nonzero"/><path fill="#000000" d="M249.86902 312.65L249.86902 304.05624L251.00964 304.05624L251.00964 311.63437L255.24402 311.63437L255.24402 312.65L249.86902 312.65ZM260.46277 312.65L259.4159 312.65L259.4159 305.93124Q259.02527 306.29062 258.40027 306.66562Q257.7909 307.025 257.30652 307.19687L257.30652 306.18124Q258.18152 305.75937 258.83777 305.18124Q259.50964 304.5875 259.7909 304.025L260.46277 304.025L260.46277 312.65ZM266.93152 312.65L266.93152 304.05624L270.74402 304.05624Q271.90027 304.05624 272.49402 304.29062Q273.08777 304.525 273.44714 305.11874Q273.80652 305.69687 273.80652 306.4Q273.80652 307.32187 273.21277 307.94687Q272.61902 308.57187 271.38464 308.74374Q271.83777 308.9625 272.07214 309.16562Q272.57214 309.61874 273.00964 310.30624L274.50964 312.65L273.07214 312.65L271.94714 310.86874Q271.44714 310.0875 271.11902 309.68124Q270.80652 309.275 270.5409 309.11874Q270.2909 308.94687 270.02527 308.86874Q269.83777 308.8375 269.40027 308.8375L268.07214 308.8375L268.07214 312.65L266.93152 312.65ZM268.07214 307.85312L270.52527 307.85312Q271.2909 307.85312 271.7284 307.69687Q272.18152 307.525 272.40027 307.18124Q272.63464 306.82187 272.63464 306.4Q272.63464 305.79062 272.18152 305.4Q271.74402 305.00937 270.7909 305.00937L268.07214 305.00937L268.07214 307.85312ZM280.0409 310.65L281.13464 310.775Q280.88464 311.72812 280.18152 312.25937Q279.4784 312.79062 278.40027 312.79062Q277.0409 312.79062 276.2284 311.94687Q275.43152 311.10312 275.43152 309.5875Q275.43152 308.025 276.24402 307.16562Q277.05652 306.29062 278.33777 306.29062Q279.58777 306.29062 280.36902 307.13437Q281.1659 307.97812 281.1659 309.525Q281.1659 309.61874 281.1659 309.80624L276.52527 309.80624Q276.58777 310.8375 277.1034 311.38437Q277.61902 311.91562 278.40027 311.91562Q278.9784 311.91562 279.38464 311.61874Q279.80652 311.30624 280.0409 310.65ZM276.58777 308.94687L280.05652 308.94687Q279.99402 308.15 279.6659 307.75937Q279.15027 307.15 278.3534 307.15Q277.61902 307.15 277.11902 307.63437Q276.63464 308.11874 276.58777 308.94687ZM286.8534 311.88437Q286.25964 312.38437 285.71277 312.5875Q285.18152 312.79062 284.55652 312.79062Q283.52527 312.79062 282.9784 312.29062Q282.43152 311.79062 282.43152 311.00937Q282.43152 310.55624 282.63464 310.18124Q282.83777 309.79062 283.18152 309.57187Q283.52527 309.3375 283.94714 309.22812Q284.24402 309.13437 284.88464 309.05624Q286.15027 308.91562 286.75964 308.69687Q286.75964 308.47812 286.75964 308.43124Q286.75964 307.775 286.46277 307.50937Q286.05652 307.16562 285.25964 307.16562Q284.52527 307.16562 284.1659 307.43124Q283.80652 307.68124 283.63464 308.3375L282.6034 308.19687Q282.74402 307.54062 283.07214 307.13437Q283.40027 306.72812 284.00964 306.50937Q284.61902 306.29062 285.4159 306.29062Q286.21277 306.29062 286.71277 306.47812Q287.21277 306.66562 287.44714 306.94687Q287.68152 307.22812 287.77527 307.66562Q287.82214 307.93124 287.82214 308.63437L287.82214 310.04062Q287.82214 311.50937 287.88464 311.9Q287.96277 312.29062 288.1659 312.65L287.05652 312.65Q286.90027 312.32187 286.8534 311.88437ZM286.75964 309.525Q286.18152 309.75937 285.0409 309.93124Q284.38464 310.025 284.11902 310.15Q283.8534 310.25937 283.69714 310.47812Q283.55652 310.69687 283.55652 310.97812Q283.55652 311.4 283.86902 311.68124Q284.19714 311.9625 284.80652 311.9625Q285.4159 311.9625 285.88464 311.69687Q286.36902 311.43124 286.58777 310.9625Q286.75964 310.60312 286.75964 309.91562L286.75964 309.525ZM293.82214 312.65L293.82214 311.86874Q293.2284 312.79062 292.08777 312.79062Q291.33777 312.79062 290.71277 312.38437Q290.08777 311.9625 289.74402 311.22812Q289.40027 310.49374 289.40027 309.54062Q289.40027 308.61874 289.71277 307.85312Q290.02527 307.0875 290.65027 306.69687Q291.27527 306.29062 292.0409 306.29062Q292.6034 306.29062 293.0409 306.525Q293.4784 306.75937 293.75964 307.13437L293.75964 304.05624L294.80652 304.05624L294.80652 312.65L293.82214 312.65ZM290.49402 309.54062Q290.49402 310.74374 290.99402 311.3375Q291.49402 311.91562 292.18152 311.91562Q292.86902 311.91562 293.3534 311.35312Q293.83777 310.79062 293.83777 309.63437Q293.83777 308.35312 293.33777 307.75937Q292.8534 307.16562 292.13464 307.16562Q291.43152 307.16562 290.96277 307.74374Q290.49402 308.30624 290.49402 309.54062Z" fill-rule="nonzero"/><path fill="#000000" d="M333.27405 312.65L333.27405 305.07187L330.44592 305.07187L330.44592 304.05624L337.25842 304.05624L337.25842 305.07187L334.41467 305.07187L334.41467 312.65L333.27405 312.65ZM338.03967 312.65L338.03967 304.05624L339.1803 304.05624L339.1803 311.63437L343.41467 311.63437L343.41467 312.65L338.03967 312.65ZM345.03967 312.65L345.03967 304.05624L348.27405 304.05624Q349.25842 304.05624 349.85217 304.32187Q350.44592 304.5875 350.77405 305.13437Q351.1178 305.66562 351.1178 306.25937Q351.1178 306.80624 350.82092 307.29062Q350.52405 307.775 349.91467 308.07187Q350.69592 308.30624 351.10217 308.86874Q351.52405 309.41562 351.52405 310.16562Q351.52405 310.75937 351.27405 311.29062Q351.02405 311.80624 350.64905 312.0875Q350.27405 312.36874 349.69592 312.50937Q349.13342 312.65 348.32092 312.65L345.03967 312.65ZM346.1803 307.66562L348.03967 307.66562Q348.78967 307.66562 349.1178 307.57187Q349.5553 307.44687 349.77405 307.15Q349.9928 306.8375 349.9928 306.38437Q349.9928 305.9625 349.78967 305.63437Q349.58655 305.30624 349.19592 305.19687Q348.82092 305.07187 347.89905 305.07187L346.1803 305.07187L346.1803 307.66562ZM346.1803 311.63437L348.32092 311.63437Q348.8678 311.63437 349.08655 311.5875Q349.4928 311.525 349.7428 311.36874Q350.00842 311.19687 350.1803 310.88437Q350.35217 310.57187 350.35217 310.16562Q350.35217 309.68124 350.10217 309.32187Q349.8678 308.9625 349.4303 308.82187Q348.9928 308.68124 348.16467 308.68124L346.1803 308.68124L346.1803 311.63437ZM356.0553 312.65L356.0553 304.05624L357.77405 304.05624L359.8053 310.13437Q360.08655 310.99374 360.21155 311.41562Q360.35217 310.94687 360.66467 310.04062L362.72717 304.05624L364.25842 304.05624L364.25842 312.65L363.16467 312.65L363.16467 305.4625L360.66467 312.65L359.63342 312.65L357.14905 305.3375L357.14905 312.65L356.0553 312.65ZM365.96155 305.275L365.96155 304.05624L367.02405 304.05624L367.02405 305.275L365.96155 305.275ZM365.96155 312.65L365.96155 306.43124L367.02405 306.43124L367.02405 312.65L365.96155 312.65ZM368.53967 310.79062L369.57092 310.63437Q369.66467 311.25937 370.0553 311.5875Q370.46155 311.91562 371.19592 311.91562Q371.91467 311.91562 372.25842 311.63437Q372.6178 311.3375 372.6178 310.93124Q372.6178 310.57187 372.3053 310.36874Q372.08655 310.22812 371.22717 310.00937Q370.07092 309.7125 369.6178 309.50937Q369.1803 309.29062 368.94592 308.91562Q368.71155 308.54062 368.71155 308.07187Q368.71155 307.66562 368.89905 307.30624Q369.08655 306.94687 369.41467 306.7125Q369.66467 306.54062 370.08655 306.41562Q370.50842 306.29062 371.00842 306.29062Q371.72717 306.29062 372.27405 306.50937Q372.83655 306.7125 373.10217 307.07187Q373.3678 307.43124 373.46155 308.025L372.4303 308.16562Q372.3678 307.69687 372.02405 307.43124Q371.69592 307.15 371.07092 307.15Q370.35217 307.15 370.03967 307.4Q369.72717 307.63437 369.72717 307.9625Q369.72717 308.16562 369.85217 308.32187Q369.9928 308.49374 370.25842 308.60312Q370.41467 308.66562 371.19592 308.86874Q372.32092 309.18124 372.75842 309.36874Q373.19592 309.55624 373.44592 309.91562Q373.69592 310.275 373.69592 310.82187Q373.69592 311.35312 373.38342 311.82187Q373.08655 312.275 372.50842 312.54062Q371.9303 312.79062 371.19592 312.79062Q369.97717 312.79062 369.33655 312.29062Q368.71155 311.775 368.53967 310.79062ZM374.53967 310.79062L375.57092 310.63437Q375.66467 311.25937 376.0553 311.5875Q376.46155 311.91562 377.19592 311.91562Q377.91467 311.91562 378.25842 311.63437Q378.6178 311.3375 378.6178 310.93124Q378.6178 310.57187 378.3053 310.36874Q378.08655 310.22812 377.22717 310.00937Q376.07092 309.7125 375.6178 309.50937Q375.1803 309.29062 374.94592 308.91562Q374.71155 308.54062 374.71155 308.07187Q374.71155 307.66562 374.89905 307.30624Q375.08655 306.94687 375.41467 306.7125Q375.66467 306.54062 376.08655 306.41562Q376.50842 306.29062 377.00842 306.29062Q377.72717 306.29062 378.27405 306.50937Q378.83655 306.7125 379.10217 307.07187Q379.3678 307.43124 379.46155 308.025L378.4303 308.16562Q378.3678 307.69687 378.02405 307.43124Q377.69592 307.15 377.07092 307.15Q376.35217 307.15 376.03967 307.4Q375.72717 307.63437 375.72717 307.9625Q375.72717 308.16562 375.85217 308.32187Q375.9928 308.49374 376.25842 308.60312Q376.41467 308.66562 377.19592 308.86874Q378.32092 309.18124 378.75842 309.36874Q379.19592 309.55624 379.44592 309.91562Q379.69592 310.275 379.69592 310.82187Q379.69592 311.35312 379.38342 311.82187Q379.08655 312.275 378.50842 312.54062Q377.9303 312.79062 377.19592 312.79062Q375.97717 312.79062 375.33655 312.29062Q374.71155 311.775 374.53967 310.79062Z" fill-rule="nonzero"/><path fill="#000000" d="M415.21033 312.65L415.21033 304.05624L416.35095 304.05624L416.35095 311.63437L420.58533 311.63437L420.58533 312.65L415.21033 312.65ZM427.3822 311.63437L427.3822 312.65L421.6947 312.65Q421.6947 312.275 421.8197 311.91562Q422.03845 311.3375 422.5072 310.775Q422.99158 310.2125 423.89783 309.47812Q425.30408 308.32187 425.78845 307.65Q426.28845 306.97812 426.28845 306.38437Q426.28845 305.75937 425.83533 305.3375Q425.3822 304.9 424.66345 304.9Q423.89783 304.9 423.4447 305.35312Q422.99158 305.80624 422.97595 306.61874L421.89783 306.50937Q422.0072 305.29062 422.72595 304.66562Q423.46033 304.025 424.6947 304.025Q425.92908 304.025 426.64783 304.7125Q427.36658 305.4 427.36658 306.41562Q427.36658 306.93124 427.14783 307.43124Q426.9447 307.91562 426.4447 308.47812Q425.96033 309.025 424.83533 309.97812Q423.8822 310.775 423.60095 311.07187Q423.33533 311.35312 423.16345 311.63437L427.3822 311.63437ZM432.27283 312.65L432.27283 304.05624L436.08533 304.05624Q437.24158 304.05624 437.83533 304.29062Q438.42908 304.525 438.78845 305.11874Q439.14783 305.69687 439.14783 306.4Q439.14783 307.32187 438.55408 307.94687Q437.96033 308.57187 436.72595 308.74374Q437.17908 308.9625 437.41345 309.16562Q437.91345 309.61874 438.35095 310.30624L439.85095 312.65L438.41345 312.65L437.28845 310.86874Q436.78845 310.0875 436.46033 309.68124Q436.14783 309.275 435.8822 309.11874Q435.6322 308.94687 435.36658 308.86874Q435.17908 308.8375 434.74158 308.8375L433.41345 308.8375L433.41345 312.65L432.27283 312.65ZM433.41345 307.85312L435.86658 307.85312Q436.6322 307.85312 437.0697 307.69687Q437.52283 307.525 437.74158 307.18124Q437.97595 306.82187 437.97595 306.4Q437.97595 305.79062 437.52283 305.4Q437.08533 305.00937 436.1322 305.00937L433.41345 305.00937L433.41345 307.85312ZM445.3822 310.65L446.47595 310.775Q446.22595 311.72812 445.52283 312.25937Q444.8197 312.79062 443.74158 312.79062Q442.3822 312.79062 441.5697 311.94687Q440.77283 311.10312 440.77283 309.5875Q440.77283 308.025 441.58533 307.16562Q442.39783 306.29062 443.67908 306.29062Q444.92908 306.29062 445.71033 307.13437Q446.5072 307.97812 446.5072 309.525Q446.5072 309.61874 446.5072 309.80624L441.86658 309.80624Q441.92908 310.8375 442.4447 311.38437Q442.96033 311.91562 443.74158 311.91562Q444.3197 311.91562 444.72595 311.61874Q445.14783 311.30624 445.3822 310.65ZM441.92908 308.94687L445.39783 308.94687Q445.33533 308.15 445.0072 307.75937Q444.49158 307.15 443.6947 307.15Q442.96033 307.15 442.46033 307.63437Q441.97595 308.11874 441.92908 308.94687ZM452.1947 311.88437Q451.60095 312.38437 451.05408 312.5875Q450.52283 312.79062 449.89783 312.79062Q448.86658 312.79062 448.3197 312.29062Q447.77283 311.79062 447.77283 311.00937Q447.77283 310.55624 447.97595 310.18124Q448.17908 309.79062 448.52283 309.57187Q448.86658 309.3375 449.28845 309.22812Q449.58533 309.13437 450.22595 309.05624Q451.49158 308.91562 452.10095 308.69687Q452.10095 308.47812 452.10095 308.43124Q452.10095 307.775 451.80408 307.50937Q451.39783 307.16562 450.60095 307.16562Q449.86658 307.16562 449.5072 307.43124Q449.14783 307.68124 448.97595 308.3375L447.9447 308.19687Q448.08533 307.54062 448.41345 307.13437Q448.74158 306.72812 449.35095 306.50937Q449.96033 306.29062 450.7572 306.29062Q451.55408 306.29062 452.05408 306.47812Q452.55408 306.66562 452.78845 306.94687Q453.02283 307.22812 453.11658 307.66562Q453.16345 307.93124 453.16345 308.63437L453.16345 310.04062Q453.16345 311.50937 453.22595 311.9Q453.30408 312.29062 453.5072 312.65L452.39783 312.65Q452.24158 312.32187 452.1947 311.88437ZM452.10095 309.525Q451.52283 309.75937 450.3822 309.93124Q449.72595 310.025 449.46033 310.15Q449.1947 310.25937 449.03845 310.47812Q448.89783 310.69687 448.89783 310.97812Q448.89783 311.4 449.21033 311.68124Q449.53845 311.9625 450.14783 311.9625Q450.7572 311.9625 451.22595 311.69687Q451.71033 311.43124 451.92908 310.9625Q452.10095 310.60312 452.10095 309.91562L452.10095 309.525ZM459.16345 312.65L459.16345 311.86874Q458.5697 312.79062 457.42908 312.79062Q456.67908 312.79062 456.05408 312.38437Q455.42908 311.9625 455.08533 311.22812Q454.74158 310.49374 454.74158 309.54062Q454.74158 308.61874 455.05408 307.85312Q455.36658 307.0875 455.99158 306.69687Q456.61658 306.29062 457.3822 306.29062Q457.9447 306.29062 458.3822 306.525Q458.8197 306.75937 459.10095 307.13437L459.10095 304.05624L460.14783 304.05624L460.14783 312.65L459.16345 312.65ZM455.83533 309.54062Q455.83533 310.74374 456.33533 311.3375Q456.83533 311.91562 457.52283 311.91562Q458.21033 311.91562 458.6947 311.35312Q459.17908 310.79062 459.17908 309.63437Q459.17908 308.35312 458.67908 307.75937Q458.1947 307.16562 457.47595 307.16562Q456.77283 307.16562 456.30408 307.74374Q455.83533 308.30624 455.83533 309.54062Z" fill-rule="nonzero"/><path fill="#000000" d="M497.88098 312.65L497.88098 304.05624L499.0216 304.05624L499.0216 311.63437L503.25598 311.63437L503.25598 312.65L497.88098 312.65ZM504.50598 310.38437L505.56848 310.24374Q505.74036 311.13437 506.17786 311.54062Q506.61536 311.93124 507.24036 311.93124Q507.99036 311.93124 508.50598 311.41562Q509.0216 310.9 509.0216 310.13437Q509.0216 309.41562 508.53723 308.94687Q508.06848 308.4625 507.3341 308.4625Q507.03723 308.4625 506.5841 308.5875L506.7091 307.65Q506.81848 307.66562 506.88098 307.66562Q507.55286 307.66562 508.0841 307.32187Q508.63098 306.9625 508.63098 306.22812Q508.63098 305.65 508.24036 305.275Q507.84973 304.88437 507.22473 304.88437Q506.61536 304.88437 506.19348 305.275Q505.78723 305.66562 505.67786 306.43124L504.61536 306.24374Q504.80286 305.19687 505.49036 304.61874Q506.17786 304.025 507.19348 304.025Q507.8966 304.025 508.49036 304.3375Q509.0841 304.63437 509.3966 305.15Q509.7091 305.66562 509.7091 306.25937Q509.7091 306.80624 509.41223 307.275Q509.11536 307.72812 508.53723 307.99374Q509.28723 308.16562 509.7091 308.72812Q510.13098 309.275 510.13098 310.11874Q510.13098 311.24374 509.30286 312.025Q508.49036 312.80624 507.24036 312.80624Q506.11536 312.80624 505.36536 312.13437Q504.61536 311.44687 504.50598 310.38437ZM514.9435 312.65L514.9435 304.05624L518.756 304.05624Q519.91223 304.05624 520.506 304.29062Q521.09973 304.525 521.4591 305.11874Q521.8185 305.69687 521.8185 306.4Q521.8185 307.32187 521.22473 307.94687Q520.631 308.57187 519.3966 308.74374Q519.84973 308.9625 520.0841 309.16562Q520.5841 309.61874 521.0216 310.30624L522.5216 312.65L521.0841 312.65L519.9591 310.86874Q519.4591 310.0875 519.131 309.68124Q518.8185 309.275 518.55286 309.11874Q518.30286 308.94687 518.03723 308.86874Q517.84973 308.8375 517.41223 308.8375L516.0841 308.8375L516.0841 312.65L514.9435 312.65ZM516.0841 307.85312L518.53723 307.85312Q519.30286 307.85312 519.74036 307.69687Q520.1935 307.525 520.41223 307.18124Q520.6466 306.82187 520.6466 306.4Q520.6466 305.79062 520.1935 305.4Q519.756 305.00937 518.80286 305.00937L516.0841 305.00937L516.0841 307.85312ZM528.05286 310.65L529.1466 310.775Q528.8966 311.72812 528.1935 312.25937Q527.49036 312.79062 526.41223 312.79062Q525.05286 312.79062 524.24036 311.94687Q523.4435 311.10312 523.4435 309.5875Q523.4435 308.025 524.256 307.16562Q525.0685 306.29062 526.34973 306.29062Q527.59973 306.29062 528.381 307.13437Q529.17786 307.97812 529.17786 309.525Q529.17786 309.61874 529.17786 309.80624L524.53723 309.80624Q524.59973 310.8375 525.11536 311.38437Q525.631 311.91562 526.41223 311.91562Q526.99036 311.91562 527.3966 311.61874Q527.8185 311.30624 528.05286 310.65ZM524.59973 308.94687L528.0685 308.94687Q528.006 308.15 527.67786 307.75937Q527.16223 307.15 526.36536 307.15Q525.631 307.15 525.131 307.63437Q524.6466 308.11874 524.59973 308.94687ZM534.86536 311.88437Q534.2716 312.38437 533.72473 312.5875Q533.1935 312.79062 532.5685 312.79062Q531.53723 312.79062 530.99036 312.29062Q530.4435 311.79062 530.4435 311.00937Q530.4435 310.55624 530.6466 310.18124Q530.84973 309.79062 531.1935 309.57187Q531.53723 309.3375 531.9591 309.22812Q532.256 309.13437 532.8966 309.05624Q534.16223 308.91562 534.7716 308.69687Q534.7716 308.47812 534.7716 308.43124Q534.7716 307.775 534.47473 307.50937Q534.0685 307.16562 533.2716 307.16562Q532.53723 307.16562 532.17786 307.43124Q531.8185 307.68124 531.6466 308.3375L530.61536 308.19687Q530.756 307.54062 531.0841 307.13437Q531.41223 306.72812 532.0216 306.50937Q532.631 306.29062 533.42786 306.29062Q534.22473 306.29062 534.72473 306.47812Q535.22473 306.66562 535.4591 306.94687Q535.6935 307.22812 535.78723 307.66562Q535.8341 307.93124 535.8341 308.63437L535.8341 310.04062Q535.8341 311.50937 535.8966 311.9Q535.97473 312.29062 536.17786 312.65L535.0685 312.65Q534.91223 312.32187 534.86536 311.88437ZM534.7716 309.525Q534.1935 309.75937 533.05286 309.93124Q532.3966 310.025 532.131 310.15Q531.86536 310.25937 531.7091 310.47812Q531.5685 310.69687 531.5685 310.97812Q531.5685 311.4 531.881 311.68124Q532.2091 311.9625 532.8185 311.9625Q533.42786 311.9625 533.8966 311.69687Q534.381 311.43124 534.59973 310.9625Q534.7716 310.60312 534.7716 309.91562L534.7716 309.525ZM541.8341 312.65L541.8341 311.86874Q541.24036 312.79062 540.09973 312.79062Q539.34973 312.79062 538.72473 312.38437Q538.09973 311.9625 537.756 311.22812Q537.41223 310.49374 537.41223 309.54062Q537.41223 308.61874 537.72473 307.85312Q538.03723 307.0875 538.66223 306.69687Q539.28723 306.29062 540.05286 306.29062Q540.61536 306.29062 541.05286 306.525Q541.49036 306.75937 541.7716 307.13437L541.7716 304.05624L542.8185 304.05624L542.8185 312.65L541.8341 312.65ZM538.506 309.54062Q538.506 310.74374 539.006 311.3375Q539.506 311.91562 540.1935 311.91562Q540.881 311.91562 541.36536 311.35312Q541.84973 310.79062 541.84973 309.63437Q541.84973 308.35312 541.34973 307.75937Q540.86536 307.16562 540.1466 307.16562Q539.4435 307.16562 538.97473 307.74374Q538.506 308.30624 538.506 309.54062Z" fill-rule="nonzero"/><path fill="#000000" d="M575.56726 312.65L575.56726 304.05624L577.286 304.05624L579.31726 310.13437Q579.5985 310.99374 579.7235 311.41562Q579.86414 310.94687 580.17664 310.04062L582.23914 304.05624L583.7704 304.05624L583.7704 312.65L582.67664 312.65L582.67664 305.4625L580.17664 312.65L579.1454 312.65L576.661 305.3375L576.661 312.65L575.56726 312.65ZM589.536 311.88437Q588.94226 312.38437 588.3954 312.5875Q587.86414 312.79062 587.23914 312.79062Q586.2079 312.79062 585.661 312.29062Q585.11414 311.79062 585.11414 311.00937Q585.11414 310.55624 585.31726 310.18124Q585.5204 309.79062 585.86414 309.57187Q586.2079 309.3375 586.62976 309.22812Q586.92664 309.13437 587.56726 309.05624Q588.8329 308.91562 589.44226 308.69687Q589.44226 308.47812 589.44226 308.43124Q589.44226 307.775 589.1454 307.50937Q588.73914 307.16562 587.94226 307.16562Q587.2079 307.16562 586.8485 307.43124Q586.48914 307.68124 586.31726 308.3375L585.286 308.19687Q585.42664 307.54062 585.75476 307.13437Q586.0829 306.72812 586.69226 306.50937Q587.30164 306.29062 588.0985 306.29062Q588.8954 306.29062 589.3954 306.47812Q589.8954 306.66562 590.12976 306.94687Q590.36414 307.22812 590.4579 307.66562Q590.50476 307.93124 590.50476 308.63437L590.50476 310.04062Q590.50476 311.50937 590.56726 311.9Q590.6454 312.29062 590.8485 312.65L589.73914 312.65Q589.5829 312.32187 589.536 311.88437ZM589.44226 309.525Q588.86414 309.75937 587.7235 309.93124Q587.06726 310.025 586.80164 310.15Q586.536 310.25937 586.37976 310.47812Q586.23914 310.69687 586.23914 310.97812Q586.23914 311.4 586.55164 311.68124Q586.87976 311.9625 587.48914 311.9625Q588.0985 311.9625 588.56726 311.69687Q589.05164 311.43124 589.2704 310.9625Q589.44226 310.60312 589.44226 309.91562L589.44226 309.525ZM592.4735 305.275L592.4735 304.05624L593.536 304.05624L593.536 305.275L592.4735 305.275ZM592.4735 312.65L592.4735 306.43124L593.536 306.43124L593.536 312.65L592.4735 312.65ZM595.4735 312.65L595.4735 306.43124L596.411 306.43124L596.411 307.30624Q597.0985 306.29062 598.3954 306.29062Q598.9579 306.29062 599.42664 306.49374Q599.911 306.69687 600.1454 307.025Q600.37976 307.35312 600.4735 307.79062Q600.5204 308.0875 600.5204 308.82187L600.5204 312.65L599.4735 312.65L599.4735 308.86874Q599.4735 308.2125 599.3485 307.9Q599.2235 307.5875 598.911 307.4Q598.5985 307.19687 598.17664 307.19687Q597.50476 307.19687 597.00476 307.63437Q596.5204 308.05624 596.5204 309.24374L596.5204 312.65L595.4735 312.65ZM605.61414 312.65L605.61414 304.05624L609.42664 304.05624Q610.5829 304.05624 611.17664 304.29062Q611.7704 304.525 612.12976 305.11874Q612.48914 305.69687 612.48914 306.4Q612.48914 307.32187 611.8954 307.94687Q611.30164 308.57187 610.06726 308.74374Q610.5204 308.9625 610.75476 309.16562Q611.25476 309.61874 611.69226 310.30624L613.19226 312.65L611.75476 312.65L610.62976 310.86874Q610.12976 310.0875 609.80164 309.68124Q609.48914 309.275 609.2235 309.11874Q608.9735 308.94687 608.7079 308.86874Q608.5204 308.8375 608.0829 308.8375L606.75476 308.8375L606.75476 312.65L605.61414 312.65ZM606.75476 307.85312L609.2079 307.85312Q609.9735 307.85312 610.411 307.69687Q610.86414 307.525 611.0829 307.18124Q611.31726 306.82187 611.31726 306.4Q611.31726 305.79062 610.86414 305.4Q610.42664 305.00937 609.4735 305.00937L606.75476 305.00937L606.75476 307.85312ZM613.661 312.65L616.9579 304.05624L618.17664 304.05624L621.69226 312.65L620.411 312.65L619.3954 310.04062L615.81726 310.04062L614.86414 312.65L613.661 312.65ZM616.1454 309.11874L619.05164 309.11874L618.161 306.74374Q617.73914 305.66562 617.55164 304.9625Q617.37976 305.79062 617.0829 306.60312L616.1454 309.11874ZM622.56726 312.65L622.56726 304.05624L624.286 304.05624L626.31726 310.13437Q626.5985 310.99374 626.7235 311.41562Q626.86414 310.94687 627.17664 310.04062L629.23914 304.05624L630.7704 304.05624L630.7704 312.65L629.67664 312.65L629.67664 305.4625L627.17664 312.65L626.1454 312.65L623.661 305.3375L623.661 312.65L622.56726 312.65Z" fill-rule="nonzero"/><path fill="#000000" d="M589.11414 326.65L589.11414 318.05624L592.92664 318.05624Q594.0829 318.05624 594.67664 318.29062Q595.2704 318.525 595.62976 319.11874Q595.98914 319.69687 595.98914 320.4Q595.98914 321.32187 595.3954 321.94687Q594.80164 322.57187 593.56726 322.74374Q594.0204 322.9625 594.25476 323.16562Q594.75476 323.61874 595.19226 324.30624L596.69226 326.65L595.25476 326.65L594.12976 324.86874Q593.62976 324.0875 593.30164 323.68124Q592.98914 323.275 592.7235 323.11874Q592.4735 322.94687 592.2079 322.86874Q592.0204 322.8375 591.5829 322.8375L590.25476 322.8375L590.25476 326.65L589.11414 326.65ZM590.25476 321.85312L592.7079 321.85312Q593.4735 321.85312 593.911 321.69687Q594.36414 321.525 594.5829 321.18124Q594.81726 320.82187 594.81726 320.4Q594.81726 319.79062 594.36414 319.4Q593.92664 319.00937 592.9735 319.00937L590.25476 319.00937L590.25476 321.85312ZM602.2235 324.65L603.31726 324.775Q603.06726 325.72812 602.36414 326.25937Q601.661 326.79062 600.5829 326.79062Q599.2235 326.79062 598.411 325.94687Q597.61414 325.10312 597.61414 323.5875Q597.61414 322.025 598.42664 321.16562Q599.23914 320.29062 600.5204 320.29062Q601.7704 320.29062 602.55164 321.13437Q603.3485 321.97812 603.3485 323.525Q603.3485 323.61874 603.3485 323.80624L598.7079 323.80624Q598.7704 324.8375 599.286 325.38437Q599.80164 325.91562 600.5829 325.91562Q601.161 325.91562 601.56726 325.61874Q601.98914 325.30624 602.2235 324.65ZM598.7704 322.94687L602.23914 322.94687Q602.17664 322.15 601.8485 321.75937Q601.3329 321.15 600.536 321.15Q599.80164 321.15 599.30164 321.63437Q598.81726 322.11874 598.7704 322.94687ZM609.036 325.88437Q608.44226 326.38437 607.8954 326.5875Q607.36414 326.79062 606.73914 326.79062Q605.7079 326.79062 605.161 326.29062Q604.61414 325.79062 604.61414 325.00937Q604.61414 324.55624 604.81726 324.18124Q605.0204 323.79062 605.36414 323.57187Q605.7079 323.3375 606.12976 323.22812Q606.42664 323.13437 607.06726 323.05624Q608.3329 322.91562 608.94226 322.69687Q608.94226 322.47812 608.94226 322.43124Q608.94226 321.775 608.6454 321.50937Q608.23914 321.16562 607.44226 321.16562Q606.7079 321.16562 606.3485 321.43124Q605.98914 321.68124 605.81726 322.3375L604.786 322.19687Q604.92664 321.54062 605.25476 321.13437Q605.5829 320.72812 606.19226 320.50937Q606.80164 320.29062 607.5985 320.29062Q608.3954 320.29062 608.8954 320.47812Q609.3954 320.66562 609.62976 320.94687Q609.86414 321.22812 609.9579 321.66562Q610.00476 321.93124 610.00476 322.63437L610.00476 324.04062Q610.00476 325.50937 610.06726 325.9Q610.1454 326.29062 610.3485 326.65L609.23914 326.65Q609.0829 326.32187 609.036 325.88437ZM608.94226 323.525Q608.36414 323.75937 607.2235 323.93124Q606.56726 324.025 606.30164 324.15Q606.036 324.25937 605.87976 324.47812Q605.73914 324.69687 605.73914 324.97812Q605.73914 325.4 606.05164 325.68124Q606.37976 325.9625 606.98914 325.9625Q607.5985 325.9625 608.06726 325.69687Q608.55164 325.43124 608.7704 324.9625Q608.94226 324.60312 608.94226 323.91562L608.94226 323.525ZM616.00476 326.65L616.00476 325.86874Q615.411 326.79062 614.2704 326.79062Q613.5204 326.79062 612.8954 326.38437Q612.2704 325.9625 611.92664 325.22812Q611.5829 324.49374 611.5829 323.54062Q611.5829 322.61874 611.8954 321.85312Q612.2079 321.0875 612.8329 320.69687Q613.4579 320.29062 614.2235 320.29062Q614.786 320.29062 615.2235 320.525Q615.661 320.75937 615.94226 321.13437L615.94226 318.05624L616.98914 318.05624L616.98914 326.65L616.00476 326.65ZM612.67664 323.54062Q612.67664 324.74374 613.17664 325.3375Q613.67664 325.91562 614.36414 325.91562Q615.05164 325.91562 615.536 325.35312Q616.0204 324.79062 616.0204 323.63437Q616.0204 322.35312 615.5204 321.75937Q615.036 321.16562 614.31726 321.16562Q613.61414 321.16562 613.1454 321.74374Q612.67664 322.30624 612.67664 323.54062Z" fill-rule="nonzero"/><path fill="#000000" d="M647.83167 312.65L651.12854 304.05624L652.3473 304.05624L655.8629 312.65L654.58167 312.65L653.56604 310.04062L649.9879 310.04062L649.0348 312.65L647.83167 312.65ZM650.31604 309.11874L653.2223 309.11874L652.33167 306.74374Q651.9098 305.66562 651.7223 304.9625Q651.5504 305.79062 651.25354 306.60312L650.31604 309.11874ZM656.6129 312.65L656.6129 304.05624L657.6754 304.05624L657.6754 312.65L656.6129 312.65ZM659.6129 312.65L659.6129 304.05624L660.6754 304.05624L660.6754 312.65L659.6129 312.65ZM662.25354 309.54062Q662.25354 307.80624 663.20667 306.97812Q664.00354 306.29062 665.1598 306.29062Q666.44104 306.29062 667.25354 307.13437Q668.08167 307.9625 668.08167 309.44687Q668.08167 310.65 667.7223 311.3375Q667.3629 312.025 666.6598 312.41562Q665.9723 312.79062 665.1598 312.79062Q663.8629 312.79062 663.0504 311.9625Q662.25354 311.11874 662.25354 309.54062ZM663.33167 309.54062Q663.33167 310.72812 663.8473 311.32187Q664.37854 311.91562 665.1598 311.91562Q665.95667 311.91562 666.4723 311.32187Q666.9879 310.72812 666.9879 309.50937Q666.9879 308.35312 666.45667 307.75937Q665.94104 307.16562 665.1598 307.16562Q664.37854 307.16562 663.8473 307.75937Q663.33167 308.3375 663.33167 309.54062ZM673.70667 310.36874L674.7379 310.50937Q674.56604 311.57187 673.8629 312.18124Q673.1598 312.79062 672.14417 312.79062Q670.8629 312.79062 670.08167 311.9625Q669.31604 311.11874 669.31604 309.55624Q669.31604 308.55624 669.64417 307.80624Q669.9879 307.04062 670.6598 306.66562Q671.3473 306.29062 672.1598 306.29062Q673.1598 306.29062 673.8004 306.80624Q674.45667 307.30624 674.64417 308.25937L673.6129 308.41562Q673.4723 307.79062 673.0973 307.47812Q672.7223 307.15 672.19104 307.15Q671.39417 307.15 670.89417 307.72812Q670.39417 308.29062 670.39417 309.525Q670.39417 310.79062 670.87854 311.35312Q671.3629 311.91562 672.12854 311.91562Q672.75354 311.91562 673.1598 311.54062Q673.58167 311.16562 673.70667 310.36874ZM677.8473 311.25937L677.8473 308.9L675.51917 308.9L675.51917 307.91562L677.8473 307.91562L677.8473 305.5875L678.8473 305.5875L678.8473 307.91562L681.19104 307.91562L681.19104 308.9L678.8473 308.9L678.8473 311.25937L677.8473 311.25937ZM682.76917 312.65L682.76917 304.05624L685.7379 304.05624Q686.7379 304.05624 687.26917 304.18124Q688.00354 304.35312 688.51917 304.79062Q689.20667 305.36874 689.5348 306.275Q689.87854 307.16562 689.87854 308.30624Q689.87854 309.29062 689.64417 310.04062Q689.4254 310.79062 689.06604 311.29062Q688.70667 311.79062 688.26917 312.07187Q687.8473 312.35312 687.25354 312.50937Q686.6598 312.65 685.87854 312.65L682.76917 312.65ZM683.9098 311.63437L685.7379 311.63437Q686.5973 311.63437 687.08167 311.47812Q687.56604 311.32187 687.8473 311.025Q688.25354 310.63437 688.4723 309.94687Q688.70667 309.25937 688.70667 308.29062Q688.70667 306.94687 688.25354 306.22812Q687.81604 305.49374 687.19104 305.24374Q686.7223 305.07187 685.7223 305.07187L683.9098 305.07187L683.9098 311.63437ZM695.89417 310.65L696.9879 310.775Q696.7379 311.72812 696.0348 312.25937Q695.33167 312.79062 694.25354 312.79062Q692.89417 312.79062 692.08167 311.94687Q691.2848 311.10312 691.2848 309.5875Q691.2848 308.025 692.0973 307.16562Q692.9098 306.29062 694.19104 306.29062Q695.44104 306.29062 696.2223 307.13437Q697.01917 307.97812 697.01917 309.525Q697.01917 309.61874 697.01917 309.80624L692.37854 309.80624Q692.44104 310.8375 692.95667 311.38437Q693.4723 311.91562 694.25354 311.91562Q694.83167 311.91562 695.2379 311.61874Q695.6598 311.30624 695.89417 310.65ZM692.44104 308.94687L695.9098 308.94687Q695.8473 308.15 695.51917 307.75937Q695.00354 307.15 694.20667 307.15Q693.4723 307.15 692.9723 307.63437Q692.4879 308.11874 692.44104 308.94687ZM702.70667 311.88437Q702.1129 312.38437 701.56604 312.5875Q701.0348 312.79062 700.4098 312.79062Q699.37854 312.79062 698.83167 312.29062Q698.2848 311.79062 698.2848 311.00937Q698.2848 310.55624 698.4879 310.18124Q698.69104 309.79062 699.0348 309.57187Q699.37854 309.3375 699.8004 309.22812Q700.0973 309.13437 700.7379 309.05624Q702.00354 308.91562 702.6129 308.69687Q702.6129 308.47812 702.6129 308.43124Q702.6129 307.775 702.31604 307.50937Q701.9098 307.16562 701.1129 307.16562Q700.37854 307.16562 700.01917 307.43124Q699.6598 307.68124 699.4879 308.3375L698.45667 308.19687Q698.5973 307.54062 698.9254 307.13437Q699.25354 306.72812 699.8629 306.50937Q700.4723 306.29062 701.26917 306.29062Q702.06604 306.29062 702.56604 306.47812Q703.06604 306.66562 703.3004 306.94687Q703.5348 307.22812 703.62854 307.66562Q703.6754 307.93124 703.6754 308.63437L703.6754 310.04062Q703.6754 311.50937 703.7379 311.9Q703.81604 312.29062 704.01917 312.65L702.9098 312.65Q702.75354 312.32187 702.70667 311.88437ZM702.6129 309.525Q702.0348 309.75937 700.89417 309.93124Q700.2379 310.025 699.9723 310.15Q699.70667 310.25937 699.5504 310.47812Q699.4098 310.69687 699.4098 310.97812Q699.4098 311.4 699.7223 311.68124Q700.0504 311.9625 700.6598 311.9625Q701.26917 311.9625 701.7379 311.69687Q702.2223 311.43124 702.44104 310.9625Q702.6129 310.60312 702.6129 309.91562L702.6129 309.525ZM705.6129 312.65L705.6129 304.05624L706.6754 304.05624L706.6754 312.65L705.6129 312.65ZM708.6129 312.65L708.6129 304.05624L709.6754 304.05624L709.6754 312.65L708.6129 312.65ZM711.25354 309.54062Q711.25354 307.80624 712.20667 306.97812Q713.00354 306.29062 714.1598 306.29062Q715.44104 306.29062 716.25354 307.13437Q717.08167 307.9625 717.08167 309.44687Q717.08167 310.65 716.7223 311.3375Q716.3629 312.025 715.6598 312.41562Q714.9723 312.79062 714.1598 312.79062Q712.8629 312.79062 712.0504 311.9625Q711.25354 311.11874 711.25354 309.54062ZM712.33167 309.54062Q712.33167 310.72812 712.8473 311.32187Q713.37854 311.91562 714.1598 311.91562Q714.95667 311.91562 715.4723 311.32187Q715.9879 310.72812 715.9879 309.50937Q715.9879 308.35312 715.45667 307.75937Q714.94104 307.16562 714.1598 307.16562Q713.37854 307.16562 712.8473 307.75937Q712.33167 308.3375 712.33167 309.54062ZM722.70667 310.36874L723.7379 310.50937Q723.56604 311.57187 722.8629 312.18124Q722.1598 312.79062 721.14417 312.79062Q719.8629 312.79062 719.08167 311.9625Q718.31604 311.11874 718.31604 309.55624Q718.31604 308.55624 718.64417 307.80624Q718.9879 307.04062 719.6598 306.66562Q720.3473 306.29062 721.1598 306.29062Q722.1598 306.29062 722.8004 306.80624Q723.45667 307.30624 723.64417 308.25937L722.6129 308.41562Q722.4723 307.79062 722.0973 307.47812Q721.7223 307.15 721.19104 307.15Q720.39417 307.15 719.89417 307.72812Q719.39417 308.29062 719.39417 309.525Q719.39417 310.79062 719.87854 311.35312Q720.3629 311.91562 721.12854 311.91562Q721.75354 311.91562 722.1598 311.54062Q722.58167 311.16562 722.70667 310.36874Z" fill-rule="nonzero"/><path fill="#000000" d="M650.1598 329.18124Q649.2848 328.07187 648.6754 326.60312Q648.08167 325.11874 648.08167 323.54062Q648.08167 322.15 648.51917 320.86874Q649.0504 319.38437 650.1598 317.91562L650.9098 317.91562Q650.20667 319.13437 649.9723 319.65Q649.6129 320.4625 649.4098 321.3375Q649.1598 322.43124 649.1598 323.54062Q649.1598 326.36874 650.9098 329.18124L650.1598 329.18124ZM651.89417 323.88437L652.95667 323.79062Q653.0348 324.44687 653.31604 324.85312Q653.5973 325.25937 654.1754 325.525Q654.76917 325.775 655.50354 325.775Q656.14417 325.775 656.64417 325.5875Q657.14417 325.38437 657.37854 325.05624Q657.62854 324.7125 657.62854 324.32187Q657.62854 323.91562 657.39417 323.61874Q657.1598 323.30624 656.62854 323.10312Q656.26917 322.9625 655.08167 322.68124Q653.9098 322.4 653.44104 322.15Q652.81604 321.82187 652.51917 321.35312Q652.2223 320.86874 652.2223 320.275Q652.2223 319.63437 652.58167 319.07187Q652.95667 318.49374 653.6598 318.2125Q654.37854 317.91562 655.2379 317.91562Q656.19104 317.91562 656.9254 318.22812Q657.6598 318.525 658.0504 319.13437Q658.44104 319.72812 658.4723 320.47812L657.37854 320.55624Q657.2848 319.74374 656.76917 319.3375Q656.26917 318.91562 655.2848 318.91562Q654.25354 318.91562 653.7848 319.29062Q653.31604 319.66562 653.31604 320.19687Q653.31604 320.66562 653.64417 320.9625Q653.9723 321.25937 655.3473 321.57187Q656.7379 321.88437 657.25354 322.11874Q658.00354 322.47812 658.3629 323.00937Q658.7223 323.525 658.7223 324.22812Q658.7223 324.91562 658.33167 325.525Q657.94104 326.11874 657.20667 326.4625Q656.4723 326.79062 655.5504 326.79062Q654.37854 326.79062 653.58167 326.4625Q652.8004 326.11874 652.3473 325.43124Q651.9098 324.74374 651.89417 323.88437ZM660.14417 326.65L660.14417 320.43124L661.08167 320.43124L661.08167 321.30624Q661.37854 320.8375 661.8629 320.57187Q662.3473 320.29062 662.9723 320.29062Q663.6598 320.29062 664.0973 320.57187Q664.5504 320.85312 664.7223 321.36874Q665.4723 320.29062 666.64417 320.29062Q667.58167 320.29062 668.06604 320.80624Q668.56604 321.30624 668.56604 322.38437L668.56604 326.65L667.51917 326.65L667.51917 322.72812Q667.51917 322.10312 667.4098 321.82187Q667.31604 321.54062 667.0504 321.36874Q666.7848 321.19687 666.4098 321.19687Q665.75354 321.19687 665.31604 321.63437Q664.89417 322.07187 664.89417 323.04062L664.89417 326.65L663.83167 326.65L663.83167 322.60312Q663.83167 321.9 663.56604 321.55624Q663.31604 321.19687 662.7379 321.19687Q662.2848 321.19687 661.9098 321.43124Q661.5348 321.66562 661.3629 322.11874Q661.19104 322.57187 661.19104 323.41562L661.19104 326.65L660.14417 326.65ZM674.20667 325.88437Q673.6129 326.38437 673.06604 326.5875Q672.5348 326.79062 671.9098 326.79062Q670.87854 326.79062 670.33167 326.29062Q669.7848 325.79062 669.7848 325.00937Q669.7848 324.55624 669.9879 324.18124Q670.19104 323.79062 670.5348 323.57187Q670.87854 323.3375 671.3004 323.22812Q671.5973 323.13437 672.2379 323.05624Q673.50354 322.91562 674.1129 322.69687Q674.1129 322.47812 674.1129 322.43124Q674.1129 321.775 673.81604 321.50937Q673.4098 321.16562 672.6129 321.16562Q671.87854 321.16562 671.51917 321.43124Q671.1598 321.68124 670.9879 322.3375L669.95667 322.19687Q670.0973 321.54062 670.4254 321.13437Q670.75354 320.72812 671.3629 320.50937Q671.9723 320.29062 672.76917 320.29062Q673.56604 320.29062 674.06604 320.47812Q674.56604 320.66562 674.8004 320.94687Q675.0348 321.22812 675.12854 321.66562Q675.1754 321.93124 675.1754 322.63437L675.1754 324.04062Q675.1754 325.50937 675.2379 325.9Q675.31604 326.29062 675.51917 326.65L674.4098 326.65Q674.25354 326.32187 674.20667 325.88437ZM674.1129 323.525Q673.5348 323.75937 672.39417 323.93124Q671.7379 324.025 671.4723 324.15Q671.20667 324.25937 671.0504 324.47812Q670.9098 324.69687 670.9098 324.97812Q670.9098 325.4 671.2223 325.68124Q671.5504 325.9625 672.1598 325.9625Q672.76917 325.9625 673.2379 325.69687Q673.7223 325.43124 673.94104 324.9625Q674.1129 324.60312 674.1129 323.91562L674.1129 323.525ZM677.1129 326.65L677.1129 318.05624L678.1754 318.05624L678.1754 326.65L677.1129 326.65ZM680.1129 326.65L680.1129 318.05624L681.1754 318.05624L681.1754 326.65L680.1129 326.65ZM685.9254 322.4625Q685.9254 320.32187 687.06604 319.11874Q688.2223 317.9 690.0348 317.9Q691.2379 317.9 692.19104 318.47812Q693.14417 319.04062 693.64417 320.05624Q694.14417 321.07187 694.14417 322.36874Q694.14417 323.66562 693.6129 324.69687Q693.08167 325.72812 692.1129 326.25937Q691.1598 326.79062 690.0348 326.79062Q688.81604 326.79062 687.8629 326.2125Q686.9098 325.61874 686.4098 324.61874Q685.9254 323.60312 685.9254 322.4625ZM687.0973 322.47812Q687.0973 324.04062 687.9254 324.93124Q688.76917 325.82187 690.0348 325.82187Q691.31604 325.82187 692.14417 324.93124Q692.9723 324.025 692.9723 322.35312Q692.9723 321.30624 692.6129 320.525Q692.26917 319.74374 691.58167 319.32187Q690.89417 318.88437 690.0504 318.88437Q688.8473 318.88437 687.9723 319.7125Q687.0973 320.54062 687.0973 322.47812ZM696.1129 326.65L695.12854 326.65L695.12854 318.05624L696.19104 318.05624L696.19104 321.11874Q696.8629 320.29062 697.89417 320.29062Q698.4723 320.29062 698.9723 320.525Q699.4879 320.74374 699.81604 321.16562Q700.1598 321.5875 700.3473 322.18124Q700.5348 322.775 700.5348 323.44687Q700.5348 325.04062 699.7379 325.91562Q698.94104 326.79062 697.8473 326.79062Q696.7379 326.79062 696.1129 325.86874L696.1129 326.65ZM696.0973 323.49374Q696.0973 324.60312 696.4098 325.10312Q696.9098 325.91562 697.75354 325.91562Q698.44104 325.91562 698.94104 325.32187Q699.45667 324.72812 699.45667 323.525Q699.45667 322.30624 698.9723 321.72812Q698.4879 321.15 697.8004 321.15Q697.1129 321.15 696.5973 321.75937Q696.0973 322.35312 696.0973 323.49374ZM702.12854 319.29062L702.12854 318.05624L703.19104 318.05624L703.19104 319.29062L702.12854 319.29062ZM700.8004 329.07187L700.9879 328.16562Q701.31604 328.24374 701.4879 328.24374Q701.81604 328.24374 701.9723 328.025Q702.12854 327.82187 702.12854 326.9625L702.12854 320.43124L703.19104 320.43124L703.19104 326.99374Q703.19104 328.13437 702.89417 328.5875Q702.50354 329.18124 701.62854 329.18124Q701.19104 329.18124 700.8004 329.07187ZM709.39417 324.65L710.4879 324.775Q710.2379 325.72812 709.5348 326.25937Q708.83167 326.79062 707.75354 326.79062Q706.39417 326.79062 705.58167 325.94687Q704.7848 325.10312 704.7848 323.5875Q704.7848 322.025 705.5973 321.16562Q706.4098 320.29062 707.69104 320.29062Q708.94104 320.29062 709.7223 321.13437Q710.51917 321.97812 710.51917 323.525Q710.51917 323.61874 710.51917 323.80624L705.87854 323.80624Q705.94104 324.8375 706.45667 325.38437Q706.9723 325.91562 707.75354 325.91562Q708.33167 325.91562 708.7379 325.61874Q709.1598 325.30624 709.39417 324.65ZM705.94104 322.94687L709.4098 322.94687Q709.3473 322.15 709.01917 321.75937Q708.50354 321.15 707.70667 321.15Q706.9723 321.15 706.4723 321.63437Q705.9879 322.11874 705.94104 322.94687ZM716.20667 324.36874L717.2379 324.50937Q717.06604 325.57187 716.3629 326.18124Q715.6598 326.79062 714.64417 326.79062Q713.3629 326.79062 712.58167 325.9625Q711.81604 325.11874 711.81604 323.55624Q711.81604 322.55624 712.14417 321.80624Q712.4879 321.04062 713.1598 320.66562Q713.8473 320.29062 714.6598 320.29062Q715.6598 320.29062 716.3004 320.80624Q716.95667 321.30624 717.14417 322.25937L716.1129 322.41562Q715.9723 321.79062 715.5973 321.47812Q715.2223 321.15 714.69104 321.15Q713.89417 321.15 713.39417 321.72812Q712.89417 322.29062 712.89417 323.525Q712.89417 324.79062 713.37854 325.35312Q713.8629 325.91562 714.62854 325.91562Q715.25354 325.91562 715.6598 325.54062Q716.08167 325.16562 716.20667 324.36874ZM720.44104 325.7125L720.5973 326.63437Q720.14417 326.72812 719.8004 326.72812Q719.2223 326.72812 718.9098 326.55624Q718.5973 326.36874 718.45667 326.07187Q718.33167 325.775 718.33167 324.82187L718.33167 321.24374L717.56604 321.24374L717.56604 320.43124L718.33167 320.43124L718.33167 318.88437L719.37854 318.25937L719.37854 320.43124L720.44104 320.43124L720.44104 321.24374L719.37854 321.24374L719.37854 324.88437Q719.37854 325.3375 719.4254 325.4625Q719.4879 325.5875 719.6129 325.66562Q719.7379 325.74374 719.9723 325.74374Q720.1598 325.74374 720.44104 325.7125ZM721.83167 329.18124L721.08167 329.18124Q722.83167 326.36874 722.83167 323.54062Q722.83167 322.44687 722.58167 321.35312Q722.37854 320.47812 722.01917 319.66562Q721.7848 319.15 721.08167 317.91562L721.83167 317.91562Q722.9254 319.38437 723.45667 320.86874Q723.9098 322.15 723.9098 323.54062Q723.9098 325.11874 723.3004 326.60312Q722.69104 328.07187 721.83167 329.18124Z" fill-rule="nonzero"/></svg>