<svg version="1.1" viewBox="0.0 0.0 723.0 368.0" fill="none" stroke="none" stroke-linecap="square" stroke-miterlimit="10" width="723" height="368" xmlns:xlink="http://www.w3.org/1999/xlink" xmlns="http://www.w3.org/2000/svg"><path fill="#ffffff" d="M0 0L723.0 0L723.0 368.0L0 368.0L0 0Z" fill-rule="nonzero"/><path stroke="#cccccc" stroke-width="1.0" stroke-linecap="butt" d="M52.5 239.5L704.5 239.5" fill-rule="nonzero"/><path stroke="#cccccc" stroke-width="1.0" stroke-linecap="butt" d="M52.5 168.5L704.5 168.5" fill-rule="nonzero"/><path stroke="#cccccc" stroke-width="1.0" stroke-linecap="butt" d="M52.5 96.5L704.5 96.5" fill-rule="nonzero"/><path stroke="#cccccc" stroke-width="1.0" stroke-linecap="butt" d="M52.5 25.5L704.5 25.5" fill-rule="nonzero"/><clipPath id="id_0"><path d="M52.4 25.4L704.6 25.4L704.6 260.8L52.4 260.8L52.4 25.4Z" clip-rule="nonzero"/></clipPath><path stroke="#4285f4" stroke-width="2.0" stroke-linecap="butt" clip-path="url(#id_0)" d="M105.12276 242.59624L105.12276 260.8" fill-rule="nonzero"/><path stroke="#4285f4" stroke-width="2.0" stroke-linecap="butt" clip-path="url(#id_0)" d="M105.12276 260.8L105.12276 242.59624" fill-rule="nonzero"/><path fill="#4285f4" clip-path="url(#id_0)" d="M78.737724 241.59624L131.50778 241.59624L131.50778 261.8L78.737724 261.8L78.737724 241.59624Z" fill-rule="nonzero"/><path stroke="#4285f4" stroke-width="2.0" stroke-linecap="butt" clip-path="url(#id_0)" d="M183.23055 236.38147L183.23055 242.59624" fill-rule="nonzero"/><path stroke="#4285f4" stroke-width="2.0" stroke-linecap="butt" clip-path="url(#id_0)" d="M183.23055 242.59624L183.23055 236.38147" fill-rule="nonzero"/><path fill="#4285f4" clip-path="url(#id_0)" d="M156.8455 235.38147L209.61557 235.38147L209.61557 243.59624L156.8455 243.59624L156.8455 235.38147Z" fill-rule="nonzero"/><path stroke="#4285f4" stroke-width="2.0" stroke-linecap="butt" clip-path="url(#id_0)" d="M261.33832 196.39969L261.33832 205.3092" fill-rule="nonzero"/><path stroke="#4285f4" stroke-width="2.0" stroke-linecap="butt" clip-path="url(#id_0)" d="M261.33832 205.3092L261.33832 196.39969" fill-rule="nonzero"/><path fill="#4285f4" clip-path="url(#id_0)" d="M234.9533 195.39969L287.72336 195.39969L287.72336 206.3092L234.9533 206.3092L234.9533 195.39969Z" fill-rule="nonzero"/><path stroke="#4285f4" stroke-width="2.0" stroke-linecap="butt" clip-path="url(#id_0)" d="M339.4461 145.04434L339.4461 179.06837" fill-rule="nonzero"/><path stroke="#4285f4" stroke-width="2.0" stroke-linecap="butt" clip-path="url(#id_0)" d="M339.4461 179.06837L339.4461 145.04434" fill-rule="nonzero"/><path fill="#4285f4" clip-path="url(#id_0)" d="M313.06107 144.04434L365.83112 144.04434L365.83112 180.06837L313.06107 180.06837L313.06107 144.04434Z" fill-rule="nonzero"/><path stroke="#4285f4" stroke-width="2.0" stroke-linecap="butt" clip-path="url(#id_0)" d="M417.5539 162.37566L417.5539 168.02216" fill-rule="nonzero"/><path stroke="#4285f4" stroke-width="2.0" stroke-linecap="butt" clip-path="url(#id_0)" d="M417.5539 168.02216L417.5539 162.37566" fill-rule="nonzero"/><path fill="#4285f4" clip-path="url(#id_0)" d="M391.16885 161.37566L443.9389 161.37566L443.9389 169.02216L391.16885 169.02216L391.16885 161.37566Z" fill-rule="nonzero"/><path stroke="#4285f4" stroke-width="2.0" stroke-linecap="butt" clip-path="url(#id_0)" d="M495.66168 107.7573L495.66168 133.99812" fill-rule="nonzero"/><path stroke="#4285f4" stroke-width="2.0" stroke-linecap="butt" clip-path="url(#id_0)" d="M495.66168 133.99812L495.66168 107.7573" fill-rule="nonzero"/><path fill="#4285f4" clip-path="url(#id_0)" d="M469.27664 106.7573L522.0467 106.7573L522.0467 134.99812L469.27664 134.99812L469.27664 106.7573Z" fill-rule="nonzero"/><path stroke="#4285f4" stroke-width="2.0" stroke-linecap="butt" clip-path="url(#id_0)" d="M573.7695 84.15382L573.7695 96.711075" fill-rule="nonzero"/><path stroke="#4285f4" stroke-width="2.0" stroke-linecap="butt" clip-path="url(#id_0)" d="M573.7695 96.711075L573.7695 84.15382" fill-rule="nonzero"/><path fill="#4285f4" clip-path="url(#id_0)" d="M547.38446 83.15382L600.15454 83.15382L600.15454 97.711075L547.38446 97.711075L547.38446 83.15382Z" fill-rule="nonzero"/><path stroke="#4285f4" stroke-width="2.0" stroke-linecap="butt" clip-path="url(#id_0)" d="M651.87726 46.86677L651.87726 75.2443" fill-rule="nonzero"/><path stroke="#4285f4" stroke-width="2.0" stroke-linecap="butt" clip-path="url(#id_0)" d="M651.87726 75.2443L651.87726 46.86677" fill-rule="nonzero"/><path fill="#4285f4" clip-path="url(#id_0)" d="M625.4922 45.86677L678.26227 45.86677L678.26227 76.2443L625.4922 76.2443L625.4922 45.86677Z" fill-rule="nonzero"/><path fill="#000000" d="M43.86875 243.33322L42.821877 243.33322L42.821877 236.61447Q42.43125 236.97385 41.80625 237.34885Q41.196877 237.70822 40.7125 237.8801L40.7125 236.86447Q41.5875 236.4426 42.24375 235.86447Q42.915627 235.27072 43.196877 234.70822L43.86875 234.70822L43.86875 243.33322Z" fill-rule="nonzero"/><path fill="#000000" d="M36.86875 172.02216L35.821877 172.02216L35.821877 165.3034Q35.43125 165.66278 34.80625 166.03778Q34.196877 166.39716 33.7125 166.56903L33.7125 165.5534Q34.5875 165.13153 35.24375 164.5534Q35.915627 163.95966 36.196877 163.39716L36.86875 163.39716L36.86875 172.02216ZM39.9 167.78778Q39.9 166.25653 40.2125 165.33466Q40.525 164.39716 41.134377 163.89716Q41.759377 163.39716 42.696877 163.39716Q43.384377 163.39716 43.9 163.6784Q44.43125 163.95966 44.775 164.4909Q45.11875 165.00653 45.30625 165.75653Q45.49375 166.50653 45.49375 167.78778Q45.49375 169.3034 45.18125 170.22528Q44.884377 171.14716 44.259377 171.66278Q43.65 172.16278 42.696877 172.16278Q41.4625 172.16278 40.74375 171.27216Q39.9 170.20966 39.9 167.78778ZM40.978127 167.78778Q40.978127 169.89716 41.478127 170.60028Q41.978127 171.3034 42.696877 171.3034Q43.43125 171.3034 43.915627 170.60028Q44.415627 169.89716 44.415627 167.78778Q44.415627 165.66278 43.915627 164.97528Q43.43125 164.27216 42.68125 164.27216Q41.9625 164.27216 41.525 164.88153Q40.978127 165.66278 40.978127 167.78778Z" fill-rule="nonzero"/><path fill="#000000" d="M29.86875 100.711075L28.821875 100.711075L28.821875 93.992325Q28.43125 94.3517 27.80625 94.7267Q27.196875 95.086075 26.7125 95.25795L26.7125 94.242325Q27.5875 93.82045 28.24375 93.242325Q28.915625 92.648575 29.196875 92.086075L29.86875 92.086075L29.86875 100.711075ZM32.9 96.4767Q32.9 94.94545 33.2125 94.023575Q33.525 93.086075 34.134377 92.586075Q34.759377 92.086075 35.696877 92.086075Q36.384377 92.086075 36.9 92.367325Q37.43125 92.648575 37.775 93.179825Q38.11875 93.69545 38.30625 94.44545Q38.49375 95.19545 38.49375 96.4767Q38.49375 97.992325 38.18125 98.9142Q37.884377 99.836075 37.259377 100.3517Q36.65 100.8517 35.696877 100.8517Q34.4625 100.8517 33.74375 99.961075Q32.9 98.898575 32.9 96.4767ZM33.978127 96.4767Q33.978127 98.586075 34.478127 99.2892Q34.978127 99.992325 35.696877 99.992325Q36.43125 99.992325 36.915627 99.2892Q37.415627 98.586075 37.415627 96.4767Q37.415627 94.3517 36.915627 93.6642Q36.43125 92.961075 35.68125 92.961075Q34.9625 92.961075 34.525 93.57045Q33.978127 94.3517 33.978127 96.4767ZM39.9 96.4767Q39.9 94.94545 40.2125 94.023575Q40.525 93.086075 41.134377 92.586075Q41.759377 92.086075 42.696877 92.086075Q43.384377 92.086075 43.9 92.367325Q44.43125 92.648575 44.775 93.179825Q45.11875 93.69545 45.30625 94.44545Q45.49375 95.19545 45.49375 96.4767Q45.49375 97.992325 45.18125 98.9142Q44.884377 99.836075 44.259377 100.3517Q43.65 100.8517 42.696877 100.8517Q41.4625 100.8517 40.74375 99.961075Q39.9 98.898575 39.9 96.4767ZM40.978127 96.4767Q40.978127 98.586075 41.478127 99.2892Q41.978127 99.992325 42.696877 99.992325Q43.43125 99.992325 43.915627 99.2892Q44.415627 98.586075 44.415627 96.4767Q44.415627 94.3517 43.915627 93.6642Q43.43125 92.961075 42.68125 92.961075Q41.9625 92.961075 41.525 93.57045Q40.978127 94.3517 40.978127 96.4767Z" fill-rule="nonzero"/><path fill="#000000" d="M22.86875 29.4L21.821875 29.4L21.821875 22.68125Q21.43125 23.040625 20.80625 23.415625Q20.196875 23.775 19.7125 23.946875L19.7125 22.93125Q20.5875 22.509375 21.24375 21.93125Q21.915625 21.3375 22.196875 20.775L22.86875 20.775L22.86875 29.4ZM25.9 25.165625Q25.9 23.634375 26.2125 22.7125Q26.525 21.775 27.134375 21.275Q27.759375 20.775 28.696875 20.775Q29.384375 20.775 29.9 21.05625Q30.43125 21.3375 30.775 21.86875Q31.11875 22.384375 31.30625 23.134375Q31.49375 23.884375 31.49375 25.165625Q31.49375 26.68125 31.18125 27.603125Q30.884375 28.525 30.259375 29.040625Q29.65 29.540625 28.696875 29.540625Q27.4625 29.540625 26.74375 28.65Q25.9 27.5875 25.9 25.165625ZM26.978125 25.165625Q26.978125 27.275 27.478125 27.978125Q27.978125 28.68125 28.696875 28.68125Q29.43125 28.68125 29.915625 27.978125Q30.415625 27.275 30.415625 25.165625Q30.415625 23.040625 29.915625 22.353125Q29.43125 21.65 28.68125 21.65Q27.9625 21.65 27.525 22.259375Q26.978125 23.040625 26.978125 25.165625ZM32.9 25.165625Q32.9 23.634375 33.2125 22.7125Q33.525 21.775 34.134377 21.275Q34.759377 20.775 35.696877 20.775Q36.384377 20.775 36.9 21.05625Q37.43125 21.3375 37.775 21.86875Q38.11875 22.384375 38.30625 23.134375Q38.49375 23.884375 38.49375 25.165625Q38.49375 26.68125 38.18125 27.603125Q37.884377 28.525 37.259377 29.040625Q36.65 29.540625 35.696877 29.540625Q34.4625 29.540625 33.74375 28.65Q32.9 27.5875 32.9 25.165625ZM33.978127 25.165625Q33.978127 27.275 34.478127 27.978125Q34.978127 28.68125 35.696877 28.68125Q36.43125 28.68125 36.915627 27.978125Q37.415627 27.275 37.415627 25.165625Q37.415627 23.040625 36.915627 22.353125Q36.43125 21.65 35.68125 21.65Q34.9625 21.65 34.525 22.259375Q33.978127 23.040625 33.978127 25.165625ZM39.9 25.165625Q39.9 23.634375 40.2125 22.7125Q40.525 21.775 41.134377 21.275Q41.759377 20.775 42.696877 20.775Q43.384377 20.775 43.9 21.05625Q44.43125 21.3375 44.775 21.86875Q45.11875 22.384375 45.30625 23.134375Q45.49375 23.884375 45.49375 25.165625Q45.49375 26.68125 45.18125 27.603125Q44.884377 28.525 44.259377 29.040625Q43.65 29.540625 42.696877 29.540625Q41.4625 29.540625 40.74375 28.65Q39.9 27.5875 39.9 25.165625ZM40.978127 25.165625Q40.978127 27.275 41.478127 27.978125Q41.978127 28.68125 42.696877 28.68125Q43.43125 28.68125 43.915627 27.978125Q44.415627 27.275 44.415627 25.165625Q44.415627 23.040625 43.915627 22.353125Q43.43125 21.65 42.68125 21.65Q41.9625 21.65 41.525 22.259375Q40.978127 23.040625 40.978127 25.165625Z" fill-rule="nonzero"/><path fill="#000000" d="M47.095795 340.3833L41.019096 334.30658L43.71494 331.61075Q44.53253 330.79315 45.118103 330.53903Q45.70368 330.2849 46.37764 330.45065Q47.04055 330.60532 47.537735 331.1025Q48.189598 331.75436 48.211697 332.61615Q48.233795 333.47794 47.482494 334.47232Q47.95758 334.30658 48.26694 334.2845Q48.9409 334.25134 49.736397 334.42813L52.454338 335.02475L51.43787 336.0412L49.382843 335.57718Q48.47686 335.3783 47.95758 335.32306Q47.44935 335.25677 47.151035 335.3341Q46.852726 335.38934 46.609657 335.52194Q46.45498 335.63242 46.14562 335.94177L45.206493 336.8809L47.902336 339.57675L47.095795 340.3833ZM44.510433 336.18484L46.245056 334.45023Q46.786434 333.90884 46.98531 333.48898Q47.18418 333.04706 47.095795 332.64932Q47.007404 332.22946 46.709095 331.93115Q46.278202 331.50027 45.68158 331.54446Q45.09601 331.5776 44.422047 332.25156L42.4996 334.174L44.510433 336.18484ZM54.95131 329.69934L55.813095 329.01434Q56.31028 329.86508 56.188744 330.7379Q56.06721 331.61075 55.304863 332.3731Q54.34364 333.33432 53.172493 333.31223Q52.012394 333.27908 50.940685 332.20737Q49.835835 331.1025 49.80269 329.92032Q49.75849 328.72708 50.664474 327.8211Q51.548355 326.93723 52.697407 326.9814Q53.857502 327.01456 54.95131 328.10837Q55.0176 328.17465 55.15018 328.30722L51.868763 331.58865Q52.642162 332.27365 53.393463 332.29575Q54.133717 332.3068 54.686142 331.75436Q55.09494 331.34558 55.17228 330.8484Q55.24962 330.3291 54.95131 329.69934ZM51.30529 330.9368L53.758064 328.484Q53.150394 327.96472 52.642162 327.92053Q51.84667 327.85425 51.28319 328.41772Q50.763912 328.937 50.75286 329.63306Q50.75286 330.31805 51.30529 330.9368ZM58.531036 329.67725L59.370728 329.05853Q59.746376 329.3458 60.110977 329.29056Q60.597115 329.22427 61.0722 328.74918Q61.591484 328.2299 61.657776 327.74374Q61.735115 327.24658 61.469948 326.78253Q61.304222 326.48422 60.56397 325.76605Q60.652355 326.82672 59.923153 327.55594Q59.017174 328.4619 57.868122 328.30722Q56.708027 328.1415 55.802048 327.23553Q55.17228 326.60574 54.86292 325.85446Q54.553562 325.08105 54.697193 324.3629Q54.840824 323.64474 55.426395 323.05917Q56.210842 322.27472 57.348843 322.39627L56.818512 321.86594L57.50352 321.1809L61.304222 324.98163Q62.331734 326.00912 62.552708 326.64996Q62.773678 327.29077 62.563755 327.98682Q62.36488 328.69394 61.70197 329.35684Q60.917522 330.1413 60.07783 330.27386Q59.238144 330.40646 58.531036 329.67725ZM56.50915 326.41794Q57.37094 327.27972 58.11119 327.33496Q58.851444 327.3902 59.370728 326.8709Q59.890007 326.35165 59.834766 325.6114Q59.79057 324.86008 58.950882 324.0204Q58.144337 323.21387 57.37094 323.16965Q56.60859 323.1144 56.100357 323.62265Q55.603172 324.11984 55.658417 324.88217Q55.713657 325.62244 56.50915 326.41794ZM58.0449 319.00436L57.183113 318.14258L57.934414 317.39127L58.7962 318.25305L58.0449 319.00436ZM63.25981 324.21927L58.86249 319.82196L59.613792 319.07065L64.011116 323.46796L63.25981 324.21927ZM63.768047 321.08148L64.386765 320.2418Q64.895 320.61743 65.40323 320.57324Q65.92251 320.518 66.441795 319.99872Q66.95003 319.49048 66.99422 319.04855Q67.038414 318.5845 66.75115 318.29724Q66.49704 318.04312 66.13243 318.12048Q65.87832 318.17572 65.11597 318.6287Q64.088455 319.2364 63.624416 319.41315Q63.160378 319.56784 62.729485 319.46838Q62.298588 319.36896 61.967133 319.0375Q61.67987 318.75024 61.55834 318.36356Q61.436802 317.97684 61.503094 317.5791Q61.55834 317.2808 61.76826 316.89407Q61.978184 316.5074 62.331734 316.15384Q62.83997 315.6456 63.381348 315.41357Q63.922726 315.15945 64.36467 315.22577Q64.80661 315.29205 65.29275 315.6456L64.66298 316.47424Q64.28733 316.18698 63.856434 316.24222Q63.42554 316.27536 62.9836 316.71732Q62.475365 317.22556 62.43117 317.6233Q62.37593 318.00998 62.60795 318.242Q62.75158 318.38565 62.950455 318.40775Q63.171425 318.42984 63.43659 318.31934Q63.59127 318.25305 64.28733 317.84427Q65.303795 317.26974 65.745735 317.09296Q66.187675 316.91617 66.61857 316.99353Q67.04946 317.07086 67.436165 317.45755Q67.81181 317.83322 67.922295 318.38565Q68.03278 318.91595 67.81181 319.5126Q67.579796 320.09818 67.06051 320.61743Q66.19872 321.47922 65.39218 321.57867Q64.58564 321.656 63.768047 321.08148ZM70.585 315.56827L71.34734 316.10965Q71.09323 316.49634 70.85016 316.7394Q70.44137 317.1482 70.09886 317.24765Q69.74531 317.33603 69.43595 317.22556Q69.13764 317.104 68.46368 316.43005L65.93356 313.89993L65.39218 314.4413L64.81766 313.8668L65.35904 313.3254L64.26523 312.2316L64.56354 311.0494L66.09929 312.58514L66.850586 311.83386L67.42512 312.4084L66.67381 313.15967L69.24812 315.73398Q69.568535 316.05438 69.69006 316.10965Q69.82265 316.15384 69.96628 316.1207Q70.10991 316.08755 70.275635 315.9218Q70.40822 315.78925 70.585 315.56827ZM73.33608 311.31458L74.19787 310.62955Q74.69505 311.4803 74.573524 312.35315Q74.45199 313.22598 73.68964 313.9883Q72.72842 314.94955 71.55727 314.92746Q70.39717 314.8943 69.32546 313.8226Q68.22061 312.71774 68.18746 311.53555Q68.14327 310.3423 69.04925 309.4363Q69.933136 308.55243 71.082184 308.59662Q72.24228 308.62976 73.33608 309.72357Q73.402374 309.7899 73.53496 309.92245L70.25354 313.20386Q71.02694 313.8889 71.77824 313.91098Q72.51849 313.92203 73.07092 313.3696Q73.47971 312.96082 73.55705 312.46362Q73.63439 311.94434 73.33608 311.31458ZM69.69006 312.552L72.142845 310.09924Q71.53517 309.57996 71.02694 309.53577Q70.231445 309.46945 69.66797 310.03293Q69.14869 310.55222 69.13764 311.2483Q69.13764 311.9333 69.69006 312.552ZM76.68379 310.7953L72.286476 306.39798L72.960434 305.724L73.623344 306.38693Q73.41342 305.66876 73.47971 305.31522Q73.546005 304.93958 73.81117 304.6744Q74.18682 304.29874 74.80554 304.14407L75.24748 305.09424Q74.80554 305.2047 74.540375 305.46988Q74.28626 305.724 74.242065 306.07758Q74.19787 306.40903 74.3857 306.75153Q74.65086 307.28186 75.1149 307.74588L77.42405 310.05502L76.68379 310.7953ZM83.27978 304.1993L77.92123 298.84076L75.92144 300.84055L75.203285 300.1224L80.020454 295.30524L80.73861 296.02338L78.727776 298.0342L84.08632 303.39276L83.27978 304.1993ZM86.58329 300.89578L82.18597 296.49847L82.85993 295.82452L83.52284 296.48743Q83.31292 295.76926 83.37921 295.4157Q83.4455 295.04007 83.71067 294.7749Q84.08632 294.39926 84.70503 294.24457L85.14698 295.19473Q84.70503 295.30524 84.43987 295.5704Q84.18575 295.82452 84.14156 296.17807Q84.09737 296.50952 84.285194 296.85202Q84.550354 297.38235 85.0144 297.8464L87.32354 300.15555L86.58329 300.89578ZM91.754005 294.64233Q91.68771 295.4157 91.44465 295.94604Q91.21263 296.46533 90.77068 296.90726Q90.04148 297.63647 89.30123 297.66962Q88.560974 297.70276 88.00855 297.15033Q87.68814 296.82993 87.56661 296.42114Q87.43403 296.00128 87.522415 295.60355Q87.599754 295.19473 87.820724 294.8191Q87.964355 294.54288 88.36211 294.03464Q89.1576 293.04028 89.433815 292.4547Q89.27913 292.30002 89.24599 292.26688Q88.78195 291.80286 88.3842 291.82495Q87.853874 291.86914 87.2904 292.43262Q86.77111 292.9519 86.70482 293.39383Q86.62748 293.82474 86.969986 294.4103L86.14135 295.04007Q85.77674 294.4766 85.721504 293.9573Q85.66626 293.43802 85.942474 292.85245Q86.21869 292.26688 86.782166 291.7034Q87.345634 291.13992 87.83177 290.91895Q88.31791 290.698 88.68251 290.73114Q89.04711 290.76428 89.42277 291.00735Q89.64374 291.16202 90.14092 291.6592L91.135284 292.6536Q92.17385 293.69214 92.49426 293.92416Q92.825714 294.14514 93.223465 294.2556L92.43902 295.04007Q92.09651 294.91852 91.754005 294.64233ZM90.01939 293.04028Q89.77631 293.6148 89.09131 294.54288Q88.69356 295.0732 88.594124 295.34943Q88.483635 295.6146 88.52783 295.87976Q88.58308 296.13388 88.78195 296.33273Q89.08026 296.63104 89.50011 296.60895Q89.931 296.5758 90.36189 296.14493Q90.792786 295.71402 90.93642 295.19473Q91.091095 294.66443 90.914314 294.17828Q90.78174 293.80264 90.2956 293.3165L90.01939 293.04028ZM94.37251 293.10657L89.97519 288.70926L90.63811 288.04633L91.25682 288.66507Q91.0248 287.46075 91.94183 286.54373Q92.33958 286.146 92.81467 285.95816Q93.300804 285.75928 93.69855 285.8256Q94.0963 285.89188 94.47195 286.13495Q94.71502 286.3117 95.2343 286.831L97.94119 289.5379L97.200935 290.27814L94.52719 287.6044Q94.06315 287.14035 93.75379 287.00778Q93.444435 286.87518 93.09088 286.9636Q92.72628 287.04092 92.42797 287.33923Q91.95288 287.81433 91.90868 288.47723Q91.864494 289.11804 92.70418 289.95773L95.11276 292.36633L94.37251 293.10657ZM97.709175 287.14035L98.32789 286.30066Q98.83612 286.67633 99.34435 286.6321Q99.86364 286.57687 100.38292 286.0576Q100.89115 285.54938 100.93535 285.10742Q100.97954 284.6434 100.692276 284.35614Q100.43816 284.10202 100.07356 284.17935Q99.81944 284.2346 99.05709 284.6876Q98.02958 285.29526 97.565544 285.47202Q97.1015 285.6267 96.67061 285.52728Q96.239716 285.42783 95.90826 285.09637Q95.620995 284.8091 95.499466 284.42242Q95.37793 284.0357 95.44422 283.63797Q95.499466 283.33966 95.70939 282.95297Q95.919304 282.56625 96.27286 282.2127Q96.7811 281.70447 97.32247 281.47244Q97.86385 281.21835 98.30579 281.28464Q98.747734 281.35092 99.23387 281.70447L98.6041 282.5331Q98.228455 282.24585 97.79756 282.3011Q97.36667 282.33423 96.92473 282.77618Q96.41649 283.28442 96.3723 283.68216Q96.317055 284.06888 96.54907 284.30087Q96.6927 284.44452 96.89158 284.4666Q97.11255 284.4887 97.377716 284.37823Q97.532394 284.31192 98.228455 283.90314Q99.24492 283.3286 99.68686 283.15182Q100.1288 282.97507 100.55969 283.0524Q100.990585 283.12973 101.37729 283.51645Q101.75294 283.8921 101.86343 284.44452Q101.97391 284.97485 101.75294 285.57147Q101.52092 286.15704 101.00164 286.67633Q100.139854 287.53812 99.333305 287.63754Q98.526764 287.71487 97.709175 287.14035ZM103.74168 283.7374L99.91888 279.9146L99.25597 280.5775L98.68144 280.003L99.34435 279.3401L98.86927 278.865Q98.42733 278.42307 98.29475 278.1358Q98.10692 277.727 98.195305 277.28506Q98.29475 276.83206 98.78088 276.34592Q99.10129 276.0255 99.554276 275.7272L100.08461 276.47852Q99.81944 276.6774 99.60952 276.8873Q99.26701 277.22983 99.26701 277.5171Q99.27806 277.7933 99.67581 278.19104L100.08461 278.59982L100.946396 277.73804L101.52092 278.31256L100.659134 279.17435L104.481926 282.99716L103.74168 283.7374ZM107.27721 277.37344L108.139 276.68845Q108.636185 277.53918 108.51465 278.41202Q108.39311 279.28485 107.63076 280.04718Q106.66954 281.00842 105.4984 280.98633Q104.338295 280.9532 103.26659 279.88147Q102.161736 278.7766 102.128586 277.59442Q102.0844 276.40118 102.99037 275.4952Q103.87426 274.6113 105.02331 274.65552Q106.1834 274.68866 107.27721 275.78247Q107.3435 275.84875 107.47608 275.98132L104.194664 279.26276Q104.96806 279.94775 105.71937 279.96985Q106.45962 279.9809 107.01205 279.42847Q107.42084 279.01968 107.498184 278.5225Q107.57552 278.0032 107.27721 277.37344ZM103.63119 278.61087L106.08397 276.1581Q105.476295 275.63882 104.96806 275.59464Q104.17257 275.52835 103.60909 276.09183Q103.08981 276.61108 103.078766 277.30716Q103.078766 277.99216 103.63119 278.61087ZM110.624916 276.85416L106.2276 272.45685L106.90156 271.7829L107.564476 272.4458Q107.35455 271.72763 107.42084 271.37408Q107.48713 270.99844 107.7523 270.73328Q108.127945 270.35764 108.746666 270.20294L109.18861 271.1531Q108.746666 271.2636 108.4815 271.52878Q108.22739 271.7829 108.18319 272.13644Q108.139 272.4679 108.32682 272.8104Q108.59199 273.34073 109.05602 273.80478L111.36517 276.11392L110.624916 276.85416Z" fill-rule="nonzero"/><path fill="#000000" d="M138.60547 326.9814L132.52876 320.9047L133.74411 319.68936L139.4783 322.55093Q140.28484 322.95975 140.67154 323.16965Q140.43953 322.73877 140.01968 321.87698L137.24649 316.18698L138.32925 315.10422L144.40594 321.1809L143.63255 321.9543L138.55022 316.87198L141.86479 323.72208L141.13557 324.4513L134.20815 321.0373L139.37886 326.208L138.60547 326.9814ZM147.20123 315.55722L148.06302 314.8722Q148.5602 315.72293 148.43867 316.59576Q148.31714 317.4686 147.55478 318.23096Q146.59357 319.19217 145.42241 319.17007Q144.26231 319.13693 143.19061 318.06522Q142.08575 316.9604 142.05261 315.77817Q142.00842 314.58493 142.9144 313.67896Q143.79828 312.79507 144.94733 312.83926Q146.10742 312.8724 147.20123 313.96622Q147.26752 314.0325 147.4001 314.1651L144.11868 317.4465Q144.89209 318.13153 145.64339 318.15363Q146.38364 318.16467 146.93607 317.61224Q147.34486 317.20343 147.4222 316.70627Q147.49954 316.18698 147.20123 315.55722ZM143.5552 316.79465L146.008 314.34186Q145.40031 313.8226 144.89209 313.77838Q144.09659 313.7121 143.53311 314.27557Q143.01384 314.79486 143.00278 315.4909Q143.00278 316.17593 143.5552 316.79465ZM150.55998 315.0269L146.16267 310.62955L146.82558 309.96664L147.4443 310.58536Q147.32277 310.04398 147.47745 309.51364Q147.62108 308.9723 148.06302 308.53033Q148.54915 308.0442 149.05739 307.93372Q149.57666 307.8122 150.0628 308.05524Q149.83078 306.76257 150.65942 305.93393Q151.32234 305.27103 152.02945 305.29312Q152.73656 305.29312 153.4989 306.05545L156.51515 309.07172L155.7749 309.81198L153.00171 307.0388Q152.55977 306.59683 152.28355 306.4753Q152.0184 306.3427 151.70903 306.40903Q151.39967 306.4753 151.1345 306.74048Q150.67047 307.2045 150.67047 307.82324Q150.68152 308.4309 151.36653 309.1159L153.91875 311.66812L153.16745 312.41943L150.30588 309.55786Q149.80869 309.06067 149.37779 309.00543Q148.9469 308.92807 148.5381 309.33688Q148.2177 309.6573 148.11826 310.08817Q148.01883 310.51907 148.2177 310.96103Q148.41656 311.40295 149.0132 311.99957L151.30025 314.28662L150.55998 315.0269ZM155.15619 306.03336Q153.9298 304.80698 154.01819 303.54745Q154.09552 302.49783 154.91312 301.68024Q155.81909 300.77426 156.99023 300.79636Q158.16139 300.79636 159.211 301.84598Q160.06174 302.69672 160.29376 303.43695Q160.52577 304.17722 160.30481 304.95062Q160.08383 305.7019 159.50931 306.27643Q158.59229 307.19345 157.43217 307.1824Q156.27208 307.14926 155.15619 306.03336ZM155.91853 305.27103Q156.75822 306.11072 157.54266 306.16595Q158.33817 306.21014 158.8906 305.6577Q159.45407 305.09424 159.39882 304.30978Q159.34358 303.52536 158.4818 302.66357Q157.6642 301.84598 156.86871 301.80176Q156.08426 301.74652 155.53183 302.29895Q154.9794 302.85138 155.0236 303.64688Q155.0678 304.4203 155.91853 305.27103ZM162.56975 303.01712L158.17244 298.61978L158.84639 297.94583L159.50931 298.60873Q159.2994 297.8906 159.36568 297.53705Q159.43196 297.16138 159.69713 296.8962Q160.07278 296.52057 160.6915 296.36588L161.13344 297.31607Q160.6915 297.42654 160.42633 297.6917Q160.17223 297.94583 160.12802 298.29938Q160.08383 298.63083 160.27165 298.97336Q160.53682 299.50366 161.00085 299.9677L163.31001 302.27686L162.56975 303.01712ZM167.06651 301.9012L166.28206 301.29355Q166.59143 301.11676 166.77925 300.92892Q167.02232 300.68588 167.07756 300.45386Q167.1549 300.22183 167.1107 299.97876Q167.05547 299.79092 166.77925 299.18326Q166.73506 299.11697 166.66876 298.9402L160.58102 296.2112L161.38756 295.40466L164.84575 297.0288Q165.50867 297.33817 166.19368 297.7359Q165.80698 297.08405 165.49762 296.42114L163.87349 292.91873L164.61374 292.1785L167.42006 298.32147Q167.86201 299.31586 167.99458 299.7357Q168.17137 300.3102 168.07193 300.74112Q167.99458 301.172 167.64104 301.52557Q167.4311 301.73547 167.06651 301.9012ZM172.92224 292.66464L165.23245 288.20102L166.0611 287.37238L170.97769 290.43283Q171.74005 290.9079 172.46925 291.41614Q171.729 290.21185 171.61852 290.01297L168.66855 284.76492L169.64082 283.79263L173.58516 285.9913Q175.05461 286.81995 176.2147 287.6707Q175.75067 286.9857 175.1872 286.04654L172.23723 281.19623L173.04378 280.3897L177.4632 288.1237L176.67874 288.9081L170.77882 285.54938Q170.03857 285.14056 169.87285 285.04114Q170.19325 285.53833 170.40317 285.92502L173.75089 291.836L172.92224 292.66464ZM179.54031 286.04654L175.14299 281.64923L175.81696 280.97528L176.47987 281.63818Q176.26994 280.92 176.33624 280.56647Q176.40253 280.19083 176.6677 279.92566Q177.04335 279.55002 177.66206 279.39532L178.104 280.3455Q177.66206 280.456 177.3969 280.72116Q177.14278 280.97528 177.09859 281.32883Q177.0544 281.66028 177.24222 282.00278Q177.50739 282.5331 177.97142 282.99716L180.28056 285.3063L179.54031 286.04654ZM177.16489 277.99216L176.3031 277.13037L177.0544 276.3791L177.91618 277.24088L177.16489 277.99216ZM182.37979 283.20706L177.98247 278.80975L178.73378 278.05844L183.13109 282.45578L182.37979 283.20706ZM185.46234 278.7987L186.22469 279.3401Q185.97057 279.72678 185.72751 279.96985Q185.31871 280.37866 184.9762 280.4781Q184.62265 280.56647 184.3133 280.456Q184.01498 280.33444 183.34102 279.6605L180.8109 277.13037L180.26952 277.67175L179.69499 277.09723L180.23637 276.55585L179.14256 275.46204L179.44089 274.27985L180.97662 275.8156L181.72794 275.0643L182.30246 275.63882L181.55115 276.39014L184.12546 278.96445Q184.44588 279.28485 184.5674 279.3401Q184.69998 279.38428 184.84361 279.35114Q184.98724 279.318 185.15298 279.15225Q185.28555 279.01968 185.46234 278.7987ZM188.21342 274.545L189.07521 273.86002Q189.57239 274.71075 189.45087 275.5836Q189.32933 276.45642 188.56697 277.21875Q187.60576 278.18 186.43462 278.1579Q185.2745 278.12476 184.2028 277.05304Q183.09795 275.94818 183.0648 274.766Q183.02061 273.57275 183.92659 272.66678Q184.81047 271.78287 185.95952 271.8271Q187.11961 271.86023 188.21342 272.95404Q188.27971 273.02032 188.4123 273.1529L185.13087 276.43433Q185.90428 277.11932 186.65558 277.14142Q187.39583 277.15247 187.94826 276.60004Q188.35706 276.19125 188.4344 275.69406Q188.51173 275.17477 188.21342 274.545ZM184.5674 275.78244L187.02019 273.32968Q186.4125 272.8104 185.90428 272.7662Q185.10878 272.69992 184.5453 273.2634Q184.02603 273.78265 184.01498 274.47873Q184.01498 275.16373 184.5674 275.78244Z" fill-rule="nonzero"/><path fill="#000000" d="M236.50119 307.19345L230.4245 301.11676L231.23103 300.3102L236.58958 305.66876L239.58374 302.6746L240.3019 303.39276L236.50119 307.19345ZM243.99211 299.70255L243.25185 300.4428L238.50098 295.69193Q238.47888 296.22226 238.30211 296.92935Q238.12534 297.61438 237.90436 298.0784L237.1862 297.36026Q237.5066 296.44324 237.56186 295.5704Q237.6171 294.67545 237.41823 294.07883L237.89331 293.60376L243.99211 299.70255ZM248.56621 295.12845L242.4895 289.05176L245.18535 286.3559Q246.00294 285.5383 246.58852 285.2842Q247.17409 285.0301 247.84805 285.1958Q248.51096 285.3505 249.00815 285.8477Q249.66 286.49954 249.6821 287.36133Q249.70421 288.2231 248.9529 289.21747Q249.428 289.05176 249.73735 289.02966Q250.41132 288.99652 251.2068 289.17328L253.92474 289.7699L252.90828 290.78638L250.85326 290.32233Q249.94727 290.12347 249.428 290.0682Q248.91975 290.00192 248.62144 290.07925Q248.32314 290.13452 248.08006 290.2671Q247.92538 290.37756 247.61603 290.68695L246.6769 291.62607L249.37274 294.3219L248.56621 295.12845ZM245.98085 290.93L247.71547 289.19537Q248.25684 288.654 248.45572 288.23416Q248.65459 287.7922 248.56621 287.39447Q248.47781 286.97464 248.1795 286.6763Q247.74861 286.24542 247.152 286.2896Q246.56642 286.32275 245.89246 286.99673L243.97 288.91916L245.98085 290.93ZM256.42172 284.44452L257.2835 283.7595Q257.7807 284.61023 257.65915 285.48306Q257.53763 286.3559 256.77527 287.11826Q255.81404 288.07947 254.6429 288.05737Q253.4828 288.02423 252.4111 286.9525Q251.30624 285.8477 251.2731 284.66547Q251.2289 283.47223 252.13489 282.56625Q253.01877 281.68237 254.16782 281.72656Q255.32791 281.7597 256.42172 282.85352Q256.488 282.9198 256.62057 283.0524L253.33917 286.3338Q254.11256 287.01883 254.86388 287.04092Q255.60413 287.05197 256.15656 286.49954Q256.56534 286.09073 256.6427 285.59357Q256.72003 285.07428 256.42172 284.44452ZM252.7757 285.68195L255.22847 283.22916Q254.6208 282.7099 254.11256 282.66568Q253.31708 282.5994 252.7536 283.16287Q252.23431 283.68216 252.22327 284.3782Q252.22327 285.06323 252.7757 285.68195ZM262.11172 280.50018Q262.0454 281.2736 261.80237 281.8039Q261.57034 282.32318 261.1284 282.76514Q260.3992 283.49432 259.65894 283.52747Q258.9187 283.56064 258.36627 283.0082Q258.04584 282.6878 257.92432 282.279Q257.79175 281.85916 257.88013 281.4614Q257.95746 281.0526 258.17844 280.67694Q258.32205 280.40076 258.71982 279.89252Q259.51532 278.89813 259.79153 278.31256Q259.63684 278.1579 259.6037 278.12476Q259.13965 277.6607 258.7419 277.6828Q258.21158 277.727 257.6481 278.29047Q257.1288 278.80975 257.06253 279.25168Q256.9852 279.6826 257.3277 280.26816L256.49905 280.89792Q256.13446 280.33444 256.07922 279.81516Q256.02396 279.2959 256.30017 278.71033Q256.5764 278.12476 257.13986 277.56128Q257.70334 276.9978 258.18948 276.77682Q258.67563 276.55585 259.04022 276.589Q259.40482 276.62213 259.7805 276.8652Q260.00143 277.0199 260.49863 277.51706L261.493 278.51144Q262.53156 279.55002 262.85196 279.782Q263.1834 280.003 263.58118 280.11346L262.79672 280.89792Q262.45422 280.7764 262.11172 280.50018ZM260.3771 278.89813Q260.13403 279.47266 259.449 280.40076Q259.05127 280.93106 258.95184 281.20728Q258.84134 281.47244 258.88553 281.7376Q258.9408 281.99173 259.13965 282.1906Q259.43796 282.48892 259.85782 282.46683Q260.2887 282.4337 260.7196 282.00278Q261.15048 281.5719 261.29413 281.0526Q261.4488 280.52228 261.27203 280.03613Q261.13943 279.6605 260.65332 279.17435L260.3771 278.89813ZM267.58075 276.1139L267.02832 275.5615Q267.26035 276.63318 266.4538 277.43973Q265.92346 277.97006 265.19427 278.12476Q264.454 278.26837 263.69165 277.99216Q262.92932 277.71594 262.25534 277.042Q261.6035 276.3901 261.28308 275.62778Q260.96268 274.86542 261.1284 274.14728Q261.28308 273.41806 261.82446 272.87668Q262.2222 272.47894 262.6973 272.3353Q263.17236 272.19168 263.6364 272.25797L261.45984 270.0814L262.2001 269.34116L268.2768 275.41785L267.58075 276.1139ZM263.02875 276.2686Q263.8795 277.11932 264.6529 277.1856Q265.41522 277.24084 265.90137 276.75473Q266.3875 276.2686 266.33224 275.52832Q266.277 274.7881 265.4594 273.9705Q264.55344 273.0645 263.78006 272.99823Q263.0177 272.92087 262.50946 273.4291Q262.01227 273.9263 262.08963 274.66653Q262.1559 275.39575 263.02875 276.2686Z" fill-rule="nonzero"/><path fill="#000000" d="M314.0676 307.73483L308.70905 302.37628L306.70926 304.37607L305.99112 303.65793L310.8083 298.84076L311.52643 299.5589L309.5156 301.56976L314.87415 306.92828L314.0676 307.73483ZM317.4374 304.36502L311.36072 298.28833L312.16724 297.48178L317.5258 302.84033L320.51996 299.84616L321.2381 300.56433L317.4374 304.36502ZM322.38715 299.41528L316.31046 293.3386L318.5975 291.05154Q319.29355 290.35547 319.90125 290.12344Q320.5089 289.89145 321.12762 290.0461Q321.74634 290.1787 322.16617 290.59854Q322.5529 290.98523 322.68546 291.53766Q322.81805 292.0901 322.59708 292.73093Q323.31525 292.3442 324.00024 292.4547Q324.68524 292.5431 325.21558 293.07343Q325.63544 293.49326 325.8343 294.0457Q326.02213 294.58707 325.95584 295.05112Q325.88956 295.51514 325.58017 296.02338Q325.28186 296.52057 324.70734 297.0951L322.38715 299.41528ZM319.66922 295.08426L320.98398 293.76947Q321.5143 293.23914 321.68005 292.94083Q321.90103 292.5431 321.84576 292.1785Q321.77948 291.80283 321.45908 291.48242Q321.16077 291.1841 320.78513 291.09573Q320.40945 291.00735 320.0559 291.2062Q319.70236 291.383 319.0505 292.03485L317.83514 293.25018L319.66922 295.08426ZM322.47556 297.8906L323.9892 296.37692Q324.3759 295.99023 324.49744 295.8024Q324.7405 295.47095 324.8068 295.1837Q324.87308 294.87433 324.77365 294.53183Q324.6742 294.18933 324.38693 293.90207Q324.04443 293.55954 323.61356 293.4822Q323.1937 293.39383 322.7849 293.60376Q322.3761 293.81366 321.79053 294.39923L320.38736 295.8024L322.47556 297.8906ZM330.1764 291.62607L324.09967 285.54935L325.31503 284.334L331.04922 287.1956Q331.85574 287.6044 332.24246 287.8143Q332.01044 287.38342 331.59058 286.52164L328.8174 280.83163L329.90018 279.74887L335.97687 285.82556L335.20346 286.59897L330.12112 281.51663L333.4357 288.36673L332.70648 289.09595L325.77905 285.68195L330.94977 290.85266L330.1764 291.62607ZM331.96625 279.40637L331.10446 278.5446L331.85574 277.79327L332.71753 278.65506L331.96625 279.40637ZM337.18115 284.62128L332.78384 280.22397L333.53513 279.47266L337.93246 283.87L337.18115 284.62128ZM337.6894 281.4835L338.3081 280.6438Q338.81635 281.01947 339.3246 280.97525Q339.84384 280.92 340.36313 280.40073Q340.87137 279.89252 340.91556 279.45056Q340.95975 278.9865 340.6725 278.69925Q340.41837 278.44516 340.05377 278.5225Q339.79965 278.57773 339.03732 279.03073Q338.0098 279.6384 337.54575 279.81516Q337.08173 279.96985 336.65082 279.87042Q336.21994 279.77097 335.8885 279.4395Q335.60123 279.15225 335.47968 278.76556Q335.35815 278.37885 335.42444 277.9811Q335.47968 277.6828 335.6896 277.2961Q335.89954 276.9094 336.25308 276.55585Q336.76132 276.0476 337.30267 275.81558Q337.84406 275.56146 338.286 275.62778Q338.72794 275.69406 339.21408 276.0476L338.58432 276.87625Q338.20868 276.589 337.77777 276.64423Q337.3469 276.67737 336.90494 277.11932Q336.3967 277.62756 336.3525 278.0253Q336.29727 278.412 336.5293 278.644Q336.6729 278.78766 336.8718 278.80975Q337.09277 278.83185 337.35794 278.72137Q337.5126 278.65506 338.20868 278.24628Q339.22513 277.67175 339.66708 277.49496Q340.109 277.3182 340.53992 277.39554Q340.9708 277.47287 341.3575 277.8596Q341.73315 278.23523 341.84363 278.78766Q341.95413 279.318 341.73315 279.9146Q341.50113 280.50018 340.98184 281.01947Q340.12006 281.88126 339.31354 281.98068Q338.507 282.058 337.6894 281.4835ZM341.93204 277.24084L342.55075 276.40115Q343.059 276.77682 343.5672 276.73264Q344.0865 276.67737 344.60577 276.1581Q345.114 275.64987 345.1582 275.20792Q345.2024 274.7439 344.91513 274.45663Q344.661 274.2025 344.29642 274.27985Q344.0423 274.33508 343.27994 274.7881Q342.25244 275.39575 341.7884 275.57254Q341.32437 275.7272 340.89346 275.62778Q340.4626 275.52832 340.1311 275.19687Q339.84384 274.9096 339.72232 274.52292Q339.6008 274.1362 339.66708 273.73846Q339.72232 273.44016 339.93225 273.05347Q340.14215 272.66675 340.49573 272.3132Q341.00394 271.80496 341.54532 271.57297Q342.0867 271.31885 342.52866 271.38513Q342.97058 271.45142 343.45673 271.80496L342.82697 272.6336Q342.4513 272.34634 342.02042 272.40158Q341.5895 272.43475 341.14758 272.87668Q340.63934 273.38492 340.59515 273.78265Q340.53992 274.16937 340.77194 274.40137Q340.91556 274.545 341.11444 274.5671Q341.33542 274.5892 341.6006 274.47873Q341.75525 274.4124 342.4513 274.00363Q343.46777 273.4291 343.90973 273.25232Q344.35165 273.07556 344.78256 273.1529Q345.21344 273.23022 345.60016 273.61694Q345.9758 273.99258 346.08627 274.545Q346.19678 275.07535 345.9758 275.67197Q345.74377 276.25754 345.2245 276.77682Q344.3627 277.6386 343.55615 277.73804Q342.74963 277.81537 341.93204 277.24084Z" fill-rule="nonzero"/><path fill="#000000" d="M392.71677 307.19345L386.64008 301.11676L387.44662 300.3102L392.80515 305.66876L395.79932 302.6746L396.51746 303.39276L392.71677 307.19345ZM400.60544 297.86847L401.32358 298.58664L397.3019 302.6083Q397.03674 302.34314 396.87103 302.00064Q396.6169 301.43716 396.5506 300.70795Q396.49536 299.9677 396.6169 298.80762Q396.79367 296.99564 396.6611 296.17807Q396.53955 295.34943 396.11972 294.92957Q395.67776 294.48764 395.05905 294.50974Q394.4293 294.52078 393.92105 295.02902Q393.37967 295.57037 393.37967 296.2112Q393.37967 296.85202 393.94315 297.4376L393.10345 298.1226Q392.31903 297.18347 392.3853 296.2333Q392.4516 295.26102 393.32443 294.38818Q394.19727 293.51535 395.19165 293.49326Q396.186 293.47116 396.90417 294.18933Q397.26877 294.55392 397.46765 295.06216Q397.6665 295.54828 397.7107 296.2996Q397.7549 297.0288 397.63336 298.49826Q397.5229 299.7357 397.53394 300.14447Q397.54498 300.5312 397.6223 300.8516L400.60544 297.86847ZM404.78177 295.12845L398.70508 289.05176L401.4009 286.3559Q402.2185 285.5383 402.80408 285.28418Q403.38965 285.0301 404.06363 285.1958Q404.72653 285.3505 405.22372 285.84766Q405.87558 286.49954 405.89767 287.36133Q405.91977 288.2231 405.1685 289.21747Q405.64355 289.05176 405.9529 289.02966Q406.6269 288.9965 407.42236 289.17328L410.14032 289.7699L409.12384 290.78638L407.06882 290.32233Q406.16284 290.12344 405.64355 290.0682Q405.1353 290.00192 404.837 290.07925Q404.5387 290.1345 404.29565 290.2671Q404.14096 290.37756 403.8316 290.68692L402.8925 291.62607L405.58832 294.3219L404.78177 295.12845ZM402.1964 290.93L403.93103 289.19537Q404.4724 288.654 404.6713 288.23416Q404.87018 287.7922 404.78177 287.39447Q404.6934 286.9746 404.39508 286.6763Q403.96417 286.24542 403.36755 286.2896Q402.78198 286.32275 402.10803 286.9967L400.18558 288.91916L402.1964 290.93ZM412.6373 284.4445L413.49908 283.7595Q413.99625 284.61023 413.87473 285.48306Q413.7532 286.3559 412.99084 287.11826Q412.02963 288.07947 410.8585 288.05737Q409.69836 288.02423 408.62668 286.9525Q407.52182 285.84766 407.48868 284.66547Q407.4445 283.47223 408.35046 282.56625Q409.23434 281.68237 410.3834 281.72656Q411.5435 281.7597 412.6373 282.85352Q412.70358 282.9198 412.83615 283.0524L409.55475 286.3338Q410.32816 287.0188 411.07944 287.04092Q411.8197 287.05197 412.37213 286.49954Q412.7809 286.09073 412.85828 285.59357Q412.9356 285.07428 412.6373 284.4445ZM408.99127 285.68195L411.44406 283.22916Q410.83636 282.70987 410.32816 282.66568Q409.53265 282.5994 408.96918 283.16287Q408.4499 283.68216 408.43884 284.3782Q408.43884 285.06323 408.99127 285.68195ZM418.3273 280.50018Q418.261 281.27356 418.01794 281.8039Q417.78592 282.32318 417.34396 282.76514Q416.61478 283.49432 415.8745 283.52747Q415.13425 283.5606 414.58185 283.00818Q414.2614 282.68777 414.1399 282.279Q414.00732 281.85913 414.0957 281.4614Q414.17303 281.0526 414.394 280.67694Q414.53763 280.40073 414.9354 279.89252Q415.7309 278.89813 416.0071 278.31256Q415.85242 278.15787 415.81927 278.12473Q415.35522 277.6607 414.9575 277.6828Q414.42715 277.727 413.86368 278.29047Q413.3444 278.80975 413.2781 279.25168Q413.20078 279.6826 413.54327 280.26816L412.71463 280.89792Q412.35004 280.33444 412.2948 279.81516Q412.23953 279.29587 412.51575 278.7103Q412.79196 278.12473 413.35544 277.56125Q413.9189 276.99777 414.40506 276.77682Q414.8912 276.55585 415.2558 276.589Q415.6204 276.62213 415.99603 276.8652Q416.217 277.0199 416.7142 277.51706L417.70856 278.51144Q418.74713 279.55 419.06754 279.782Q419.399 280.003 419.79675 280.11346L419.0123 280.89792Q418.6698 280.7764 418.3273 280.50018ZM416.59268 278.89813Q416.3496 279.47266 415.66458 280.40073Q415.26685 280.93106 415.16742 281.20728Q415.05692 281.47244 415.1011 281.7376Q415.15637 281.99173 415.35522 282.1906Q415.65353 282.48892 416.0734 282.46683Q416.50427 282.43365 416.93518 282.00278Q417.36606 281.57187 417.5097 281.0526Q417.66437 280.52228 417.4876 280.03613Q417.355 279.6605 416.8689 279.17435L416.59268 278.89813ZM423.79633 276.1139L423.2439 275.56146Q423.47592 276.63318 422.66937 277.43973Q422.13904 277.97006 421.40982 278.12473Q420.6696 278.26837 419.90723 277.99216Q419.1449 277.71594 418.47092 277.042Q417.81906 276.3901 417.49866 275.62778Q417.17825 274.86542 417.34396 274.14725Q417.49866 273.41806 418.04004 272.87668Q418.43777 272.47894 418.91287 272.3353Q419.38794 272.19168 419.852 272.25797L417.6754 270.0814L418.41568 269.34116L424.49237 275.41785L423.79633 276.1139ZM419.24432 276.2686Q420.09506 277.11932 420.86847 277.1856Q421.6308 277.24084 422.11694 276.75473Q422.6031 276.2686 422.54782 275.52832Q422.49258 274.7881 421.675 273.9705Q420.769 273.0645 419.9956 272.9982Q419.23328 272.92087 418.72504 273.4291Q418.22784 273.9263 418.3052 274.66653Q418.3715 275.39575 419.24432 276.2686Z" fill-rule="nonzero"/><path fill="#000000" d="M470.82452 307.19348L464.74783 301.11676L465.55438 300.31024L470.91293 305.66876L473.90707 302.67462L474.62524 303.39276L470.82452 307.19348ZM473.90707 300.90686L474.55893 300.05612Q475.31024 300.56436 475.90686 300.54224Q476.49243 300.5091 476.9344 300.06717Q477.46472 299.53683 477.46472 298.80762Q477.46472 298.07843 476.92334 297.53705Q476.4151 297.0288 475.74112 297.03986Q475.06717 297.0288 474.54788 297.5481Q474.33798 297.75803 474.10596 298.1668L473.53143 297.41553Q473.6198 297.3492 473.664 297.30502Q474.1391 296.82993 474.27167 296.2112Q474.40427 295.5704 473.88498 295.05112Q473.4762 294.64233 472.9348 294.65338Q472.3824 294.65338 471.94043 295.0953Q471.50955 295.5262 471.48746 296.10074Q471.4764 296.6642 471.94043 297.28293L471.05655 297.90164Q470.44888 297.0288 470.5262 296.13388Q470.5925 295.2279 471.31067 294.50974Q471.80786 294.01257 472.44867 293.8137Q473.07843 293.60376 473.664 293.7474Q474.24957 293.89102 474.66943 294.31088Q475.05612 294.69757 475.17764 295.23895Q475.28815 295.7693 475.06717 296.3659Q475.71902 295.9571 476.4151 296.05655Q477.1001 296.14493 477.69672 296.74155Q478.49222 297.53705 478.45908 298.67505Q478.43698 299.802 477.5531 300.68588Q476.7576 301.48138 475.7522 301.53662Q474.73572 301.5808 473.90707 300.90686ZM482.88953 295.12848L476.81284 289.05176L479.5087 286.35593Q480.3263 285.53833 480.91187 285.2842Q481.49744 285.0301 482.1714 285.19583Q482.8343 285.3505 483.33148 285.8477Q483.98334 286.49954 484.00543 287.36133Q484.02753 288.2231 483.27625 289.2175Q483.75134 289.05176 484.0607 289.02966Q484.73465 288.99652 485.53015 289.1733L488.24808 289.76993L487.23163 290.78638L485.17657 290.32236Q484.2706 290.12347 483.75134 290.06824Q483.2431 290.00195 482.9448 290.07928Q482.64648 290.13452 482.4034 290.2671Q482.24872 290.3776 481.93936 290.68695L481.00024 291.62607L483.69608 294.32193L482.88953 295.12848ZM480.30417 290.93002L482.03882 289.1954Q482.58017 288.65402 482.77905 288.23416Q482.97794 287.79224 482.88953 287.39447Q482.80115 286.97464 482.50284 286.67633Q482.07196 286.24542 481.47534 286.28964Q480.88974 286.32278 480.2158 286.99673L478.29333 288.9192L480.30417 290.93002ZM490.74506 284.44452L491.60687 283.7595Q492.10403 284.61023 491.9825 285.48306Q491.86096 286.35593 491.0986 287.11826Q490.1374 288.0795 488.96625 288.0574Q487.80615 288.02426 486.73444 286.95255Q485.62958 285.8477 485.59644 284.6655Q485.55225 283.47226 486.45822 282.56628Q487.3421 281.68237 488.49118 281.72656Q489.65128 281.7597 490.7451 282.85352Q490.81137 282.9198 490.94394 283.0524L487.6625 286.33383Q488.4359 287.01883 489.18723 287.04092Q489.92746 287.05197 490.4799 286.49954Q490.88867 286.09076 490.96603 285.59357Q491.04337 285.07428 490.74506 284.44452ZM487.09903 285.68195L489.55182 283.2292Q488.94415 282.7099 488.4359 282.6657Q487.6404 282.59943 487.07693 283.1629Q486.55765 283.68216 486.5466 284.37823Q486.5466 285.06323 487.09903 285.68195ZM496.4351 280.50018Q496.36877 281.27356 496.12573 281.8039Q495.8937 282.32318 495.45175 282.76514Q494.72256 283.49432 493.9823 283.52747Q493.24203 283.5606 492.68964 283.00818Q492.3692 282.68777 492.24768 282.279Q492.11508 281.85913 492.2035 281.4614Q492.28082 281.0526 492.5018 280.67694Q492.64542 280.40073 493.04318 279.8925Q493.83868 278.89813 494.11487 278.31256Q493.9602 278.15787 493.92706 278.12473Q493.463 277.6607 493.06528 277.6828Q492.53494 277.727 491.97147 278.29047Q491.45218 278.80975 491.3859 279.25168Q491.30856 279.6826 491.65106 280.26816L490.82242 280.89792Q490.45782 280.33444 490.40256 279.81516Q490.34732 279.29587 490.62354 278.7103Q490.89975 278.12473 491.46323 277.56125Q492.0267 276.99777 492.51285 276.77682Q492.999 276.55585 493.3636 276.589Q493.72818 276.62213 494.10382 276.8652Q494.3248 277.01987 494.822 277.51706L495.81635 278.51144Q496.85492 279.55 497.17532 279.782Q497.50677 280.003 497.90454 280.11346L497.1201 280.89792Q496.7776 280.7764 496.4351 280.50018ZM494.70047 278.89813Q494.4574 279.47266 493.77237 280.40073Q493.37463 280.93106 493.2752 281.20728Q493.1647 281.47244 493.2089 281.7376Q493.26416 281.99173 493.463 282.1906Q493.76132 282.48892 494.18118 282.4668Q494.61206 282.43365 495.04297 282.00278Q495.47385 281.57187 495.6175 281.0526Q495.77216 280.52228 495.5954 280.03613Q495.4628 279.6605 494.97668 279.17435L494.70047 278.89813ZM501.9041 276.1139L501.35168 275.56146Q501.5837 276.63318 500.77716 277.43973Q500.24683 277.97006 499.5176 278.12473Q498.77737 278.26837 498.015 277.99216Q497.25266 277.71594 496.5787 277.04196Q495.92685 276.3901 495.60645 275.62778Q495.28604 274.86542 495.45175 274.14725Q495.60645 273.41806 496.14783 272.87668Q496.54556 272.47894 497.02066 272.3353Q497.49573 272.19168 497.95978 272.25797L495.7832 270.0814L496.52347 269.34116L502.60016 275.41785L501.9041 276.1139ZM497.3521 276.2686Q498.20285 277.11932 498.97626 277.1856Q499.7386 277.24084 500.22473 276.7547Q500.71088 276.2686 500.6556 275.52832Q500.60037 274.7881 499.78278 273.9705Q498.8768 273.0645 498.1034 272.9982Q497.34106 272.92087 496.83282 273.4291Q496.33563 273.9263 496.413 274.66653Q496.47928 275.39575 497.3521 276.2686Z" fill-rule="nonzero"/><path fill="#000000" d="M518.5378 337.58798L512.4611 331.5113L513.67645 330.29596L519.41064 333.15753Q520.21716 333.5663 520.6039 333.77625Q520.3718 333.34534 519.952 332.48355L517.17883 326.79358L518.2616 325.71082L524.33826 331.7875L523.5649 332.5609L518.48254 327.47858L521.7971 334.32867L521.06793 335.05786L514.1405 331.6439L519.3112 336.8146L518.5378 337.58798ZM527.87384 327.16922Q527.8075 327.94263 527.56445 328.47293Q527.33246 328.99222 526.8905 329.43417Q526.1613 330.16336 525.421 330.1965Q524.6808 330.22968 524.12836 329.67725Q523.8079 329.35684 523.6864 328.94803Q523.55383 328.5282 523.6422 328.13043Q523.71954 327.72165 523.94055 327.34598Q524.08417 327.0698 524.48193 326.56155Q525.2774 325.56717 525.55365 324.9816Q525.3989 324.82693 525.3658 324.7938Q524.90173 324.32974 524.504 324.35184Q523.9737 324.39603 523.4102 324.9595Q522.8909 325.4788 522.82465 325.92072Q522.7473 326.35162 523.0898 326.9372L522.26117 327.56696Q521.89655 327.00348 521.8413 326.4842Q521.7861 325.96494 522.06226 325.37936Q522.3385 324.7938 522.902 324.23032Q523.46545 323.66684 523.9516 323.44586Q524.43774 323.22488 524.8023 323.25803Q525.16693 323.29117 525.5426 323.53424Q525.76355 323.68893 526.26074 324.1861L527.2551 325.18048Q528.29364 326.21906 528.6141 326.45105Q528.9455 326.67203 529.34326 326.78253L528.55884 327.56696Q528.2163 327.44543 527.87384 327.16922ZM526.1392 325.56717Q525.8961 326.1417 525.2111 327.0698Q524.81335 327.6001 524.7139 327.8763Q524.60345 328.14148 524.64764 328.40665Q524.7029 328.66077 524.90173 328.85965Q525.2001 329.15796 525.61993 329.13586Q526.0508 329.10272 526.4817 328.6718Q526.9126 328.24094 527.0562 327.72165Q527.2109 327.1913 527.0341 326.70517Q526.90155 326.32953 526.4154 325.84338L526.1392 325.56717ZM525.2774 320.41855L524.41565 319.55676L525.16693 318.80548L526.0287 319.66727L525.2774 320.41855ZM530.4923 325.63345L526.095 321.23615L526.8463 320.48483L531.24365 324.88217L530.4923 325.63345ZM532.61365 323.51215L528.2163 319.11484L528.8792 318.4519L529.4979 319.07065Q529.2659 317.86633 530.183 316.9493Q530.5807 316.55157 531.0558 316.36374Q531.54193 316.16486 531.9397 316.23117Q532.3374 316.29745 532.7131 316.54053Q532.9562 316.7173 533.4754 317.23657L536.1823 319.94348L535.4421 320.68372L532.7683 318.00998Q532.30426 317.54593 531.99493 317.41336Q531.68555 317.28076 531.33203 317.36917Q530.9674 317.4465 530.6691 317.7448Q530.19403 318.2199 530.14984 318.8828Q530.10565 319.52362 530.9453 320.3633L533.3539 322.77188L532.61365 323.51215ZM539.7841 316.34164L533.70746 310.26495L536.4033 307.5691Q537.2209 306.7515 537.80646 306.4974Q538.392 306.2433 539.066 306.409Q539.7289 306.5637 540.2261 307.06085Q540.8779 307.71274 540.9 308.57452Q540.9221 309.4363 540.17084 310.43066Q540.64594 310.26495 540.9553 310.24286Q541.6293 310.20972 542.42474 310.38647L545.1427 310.9831L544.1262 311.99957L542.07117 311.53552Q541.1652 311.33664 540.64594 311.2814Q540.1377 311.21512 539.8394 311.29245Q539.5411 311.3477 539.29803 311.4803Q539.1433 311.59076 538.834 311.90012L537.89484 312.83926L540.5907 315.5351L539.7841 316.34164ZM537.1988 312.1432L538.9334 310.40857Q539.4748 309.8672 539.67365 309.44736Q539.87256 309.0054 539.7841 308.60767Q539.69574 308.1878 539.39746 307.8895Q538.96655 307.45862 538.36993 307.5028Q537.78436 307.53595 537.1104 308.20993L535.1879 310.13235L537.1988 312.1432ZM545.4741 310.65164L541.7287 302.2437L542.59045 301.38193L551.1531 304.9727L550.24713 305.87866L547.68384 304.7517L545.15375 307.28183L546.3249 309.8009L545.4741 310.65164ZM544.7339 306.39795L546.78894 304.34293L544.4798 303.2933Q543.4191 302.82928 542.78937 302.46466Q543.2534 303.17178 543.618 303.95624L544.7339 306.39795ZM551.7718 304.35397L545.6951 298.27728L546.91046 297.06192L552.64465 299.9235Q553.4512 300.3323 553.8379 300.54224Q553.6059 300.11133 553.18604 299.24954L550.41284 293.55954L551.4956 292.47678L557.5723 298.5535L556.7989 299.32687L551.71655 294.24457L555.0311 301.09467L554.30194 301.82385L547.3745 298.40985L552.5452 303.58057L551.7718 304.35397ZM560.9974 295.12845L554.92065 289.05173L557.6165 286.3559Q558.4341 285.5383 559.01965 285.28418Q559.6052 285.03006 560.2792 285.1958Q560.9421 285.35046 561.4393 285.84766Q562.0911 286.49954 562.1133 287.36133Q562.1354 288.2231 561.38403 289.21747Q561.85913 289.05173 562.1685 289.02963Q562.84247 288.9965 563.63794 289.17328L566.3559 289.7699L565.3394 290.78638L563.2844 290.32233Q562.3784 290.12344 561.85913 290.0682Q561.3509 290.00192 561.0526 290.07925Q560.7543 290.1345 560.5112 290.2671Q560.3565 290.37756 560.0472 290.68692L559.10803 291.62604L561.8039 294.3219L560.9974 295.12845ZM558.412 290.93L560.1466 289.19537Q560.688 288.654 560.88684 288.23416Q561.08575 287.7922 560.9974 287.39447Q560.90894 286.9746 560.61066 286.6763Q560.17975 286.24542 559.5831 286.2896Q558.99756 286.32275 558.3236 286.9967L556.4012 288.91916L558.412 290.93ZM568.85284 284.4445L569.71466 283.7595Q570.21185 284.61023 570.0903 285.48306Q569.96875 286.3559 569.2064 287.11826Q568.2452 288.07947 567.07404 288.05737Q565.91394 288.02423 564.8422 286.9525Q563.73737 285.84766 563.7042 284.66547Q563.66003 283.47223 564.56604 282.56625Q565.4499 281.68237 566.59894 281.72656Q567.75903 281.7597 568.85284 282.85352Q568.9191 282.9198 569.05176 283.05237L565.7703 286.3338Q566.5437 287.0188 567.29504 287.0409Q568.0353 287.05194 568.5877 286.49954Q568.9965 286.09073 569.07385 285.59354Q569.1512 285.07428 568.85284 284.4445ZM565.20685 285.68195L567.6596 283.22916Q567.05194 282.70987 566.5437 282.66568Q565.7482 282.5994 565.18475 283.16287Q564.66547 283.68216 564.6544 284.3782Q564.6544 285.0632 565.20685 285.68195ZM574.54285 280.50018Q574.47656 281.27356 574.2335 281.8039Q574.00146 282.32318 573.5596 282.7651Q572.8303 283.49432 572.0901 283.52747Q571.34985 283.5606 570.7974 283.00818Q570.477 282.68777 570.35547 282.279Q570.2229 281.85913 570.3113 281.4614Q570.3886 281.05258 570.60956 280.67694Q570.75323 280.40073 571.15094 279.8925Q571.9465 278.89813 572.22266 278.31256Q572.068 278.15787 572.03485 278.12473Q571.5708 277.6607 571.17303 277.6828Q570.6427 277.727 570.0792 278.29047Q569.56 278.80975 569.49365 279.25168Q569.4163 279.6826 569.75885 280.26816L568.9302 280.89792Q568.5656 280.33444 568.5104 279.81516Q568.45514 279.29587 568.7313 278.7103Q569.00757 278.12473 569.57104 277.56125Q570.1345 276.99777 570.6206 276.7768Q571.10675 276.55585 571.4714 276.589Q571.836 276.62213 572.2116 276.8652Q572.4326 277.01987 572.92975 277.51706L573.92413 278.51144Q574.9627 279.55 575.28314 279.782Q575.61456 280.003 576.0123 280.11346L575.22784 280.89792Q574.8854 280.77637 574.54285 280.50018ZM572.8082 278.89813Q572.5652 279.47266 571.8802 280.40073Q571.4824 280.93106 571.383 281.20728Q571.2725 281.47244 571.3167 281.7376Q571.37195 281.99173 571.5708 282.19058Q571.86914 282.4889 572.28894 282.4668Q572.71985 282.43365 573.15076 282.00278Q573.58167 281.57187 573.7253 281.05258Q573.87994 280.52228 573.7032 280.03613Q573.5706 279.6605 573.0845 279.17435L572.8082 278.89813ZM580.0119 276.1139L579.4595 275.56146Q579.69147 276.63318 578.88495 277.43973Q578.3546 277.97006 577.6254 278.12473Q576.88513 278.26837 576.1228 277.99216Q575.3605 277.71594 574.6865 277.04196Q574.0346 276.3901 573.71423 275.62775Q573.3938 274.86542 573.5596 274.14725Q573.71423 273.41806 574.2556 272.87668Q574.6533 272.4789 575.1284 272.3353Q575.6035 272.19165 576.06757 272.25797L573.891 270.0814L574.6312 269.34113L580.70795 275.41785L580.0119 276.1139ZM575.4599 276.2686Q576.3106 277.11932 577.08405 277.1856Q577.8464 277.24084 578.3325 276.7547Q578.81866 276.2686 578.7634 275.52832Q578.7082 274.7881 577.89056 273.9705Q576.9846 273.06448 576.2112 272.9982Q575.44885 272.92087 574.9406 273.4291Q574.4434 273.9263 574.52075 274.66653Q574.58704 275.39575 575.4599 276.2686Z" fill-rule="nonzero"/><path fill="#000000" d="M605.90424 328.3293L602.1588 319.92136L603.02057 319.05957L611.5832 322.65036L610.67725 323.55634L608.11395 322.42938L605.58386 324.9595L606.755 327.47858L605.90424 328.3293ZM605.164 324.07562L607.21906 322.0206L604.9099 320.97098Q603.84924 320.50693 603.2195 320.14233Q603.68353 320.84946 604.0481 321.63388L605.164 324.07562ZM612.1135 322.12003L606.03687 316.04333L606.78815 315.29202L612.86487 321.3687L612.1135 322.12003ZM614.23486 319.99872L608.15814 313.922L608.9095 313.17072L614.98615 319.2474L614.23486 319.99872ZM613.9034 315.93283Q612.677 314.70645 612.7654 313.44693Q612.8428 312.3973 613.66034 311.5797Q614.56635 310.67374 615.7375 310.69583Q616.9086 310.69583 617.95825 311.74545Q618.80896 312.5962 619.04095 313.33643Q619.273 314.0767 619.052 314.8501Q618.83105 315.60138 618.25653 316.1759Q617.3395 317.09296 616.1794 317.08188Q615.0193 317.04874 613.9034 315.93283ZM614.6658 315.1705Q615.50543 316.0102 616.2899 316.06543Q617.0854 316.10962 617.6378 315.5572Q618.2013 314.9937 618.14606 314.20926Q618.0908 313.42484 617.229 312.56305Q616.41144 311.74545 615.6159 311.70126Q614.8315 311.646 614.27905 312.19843Q613.7266 312.75085 613.7708 313.54636Q613.815 314.31976 614.6658 315.1705ZM622.5876 308.41983L623.4162 307.79007Q624.04596 308.6629 623.9797 309.59097Q623.9134 310.51907 623.19525 311.2372Q622.28925 312.1432 621.15125 312.11005Q620.01324 312.0548 618.9084 310.94995Q618.2013 310.24286 617.90295 309.4805Q617.6047 308.69604 617.8146 307.9558Q618.0356 307.2045 618.6101 306.62997Q619.3172 305.92285 620.13477 305.83447Q620.9524 305.724 621.7589 306.26538L621.1402 307.10507Q620.5988 306.76254 620.1127 306.80676Q619.6155 306.8399 619.23987 307.21555Q618.6764 307.77902 618.7316 308.54138Q618.7758 309.29266 619.6487 310.1655Q620.5436 311.06042 621.2838 311.1157Q622.0241 311.17093 622.5655 310.62955Q623.0074 310.1876 623.0295 309.63516Q623.0626 309.0717 622.5876 308.41983ZM626.1452 306.12173L624.47687 304.4534L622.8306 306.09964L622.1346 305.4036L623.7808 303.75735L622.1346 302.1111L622.8417 301.40402L624.4879 303.05023L626.1452 301.39297L626.84125 302.08902L625.18396 303.7463L626.8523 305.41464L626.1452 306.12173ZM630.6088 303.62476L624.5321 297.54807L626.63135 295.44885Q627.33844 294.74173 627.8025 294.45447Q628.4433 294.05673 629.11725 294.0015Q630.0122 293.92413 630.885 294.33295Q631.7579 294.71964 632.5644 295.52618Q633.26044 296.22223 633.62506 296.9183Q634.00073 297.6033 634.10016 298.21097Q634.1996 298.81866 634.0891 299.32687Q633.9897 299.82407 633.6803 300.3544Q633.3599 300.8737 632.8075 301.42612L630.6088 303.62476ZM630.6972 302.10007L631.98987 300.8074Q632.59753 300.1997 632.8296 299.74673Q633.0616 299.29373 633.05054 298.88495Q633.0616 298.32147 632.7301 297.68066Q632.4097 297.02878 631.72473 296.34378Q630.77454 295.39362 629.9459 295.20578Q629.11725 294.99585 628.49854 295.26102Q628.04553 295.47095 627.33844 296.17804L626.0568 297.4597L630.6972 302.10007ZM638.47534 292.92978L639.33716 292.24478Q639.83435 293.09552 639.7128 293.96835Q639.59125 294.8412 638.8289 295.60352Q637.8677 296.56476 636.69653 296.54266Q635.53644 296.5095 634.4647 295.4378Q633.3599 294.33295 633.3267 293.15076Q633.28253 291.95752 634.18854 291.0515Q635.07245 290.16763 636.2215 290.21182Q637.3816 290.245 638.47534 291.33878Q638.5417 291.4051 638.67426 291.53766L635.3928 294.8191Q636.1662 295.5041 636.91754 295.52618Q637.6578 295.53723 638.2102 294.9848Q638.619 294.57602 638.69635 294.07883Q638.7737 293.55954 638.47534 292.92978ZM634.82935 294.1672L637.2821 291.71445Q636.67444 291.19516 636.1662 291.15097Q635.3707 291.08466 634.80725 291.64813Q634.28796 292.16742 634.2769 292.8635Q634.2769 293.5485 634.82935 294.1672ZM644.16534 288.98544Q644.09906 289.75885 643.856 290.28918Q643.62396 290.80847 643.18207 291.2504Q642.4528 291.9796 641.7126 292.01276Q640.97235 292.0459 640.4199 291.49347Q640.0995 291.17307 639.97797 290.76425Q639.8454 290.34442 639.9338 289.94666Q640.0111 289.53787 640.2321 289.16223Q640.37573 288.88602 640.77344 288.37778Q641.569 287.38342 641.84515 286.79782Q641.6905 286.64316 641.65735 286.61002Q641.1933 286.14597 640.7956 286.16806Q640.26526 286.21225 639.7018 286.77573Q639.1825 287.295 639.1162 287.73697Q639.0388 288.16785 639.38135 288.75342L638.55273 289.3832Q638.1881 288.81973 638.1329 288.30045Q638.07764 287.78116 638.3538 287.1956Q638.63007 286.61002 639.19354 286.04654Q639.757 285.48306 640.24316 285.2621Q640.72925 285.0411 641.0939 285.07425Q641.4585 285.10742 641.8341 285.35046Q642.0551 285.50516 642.5523 286.00235L643.54663 286.9967Q644.5852 288.03528 644.90564 288.2673Q645.23706 288.48825 645.6348 288.59875L644.8504 289.3832Q644.5079 289.26166 644.16534 288.98544ZM642.4307 287.38342Q642.1877 287.95795 641.5027 288.88602Q641.1049 289.41635 641.0055 289.69257Q640.895 289.95773 640.9392 290.22287Q640.99445 290.477 641.1933 290.67587Q641.49164 290.97418 641.91144 290.9521Q642.34235 290.91895 642.77325 290.48804Q643.20416 290.05716 643.3478 289.53787Q643.50244 289.00754 643.3257 288.52142Q643.1931 288.14575 642.707 287.6596L642.4307 287.38342ZM646.7618 287.4718L640.68506 281.3951L641.4364 280.6438L647.51306 286.7205L646.7618 287.4718ZM648.8831 285.35046L642.8064 279.27377L643.5577 278.5225L649.6344 284.59918L648.8831 285.35046ZM648.55164 281.2846Q647.32526 280.05823 647.41364 278.79868Q647.49097 277.74908 648.3086 276.9315Q649.21454 276.0255 650.3857 276.0476Q651.5568 276.0476 652.60645 277.09723Q653.4572 277.94794 653.6892 278.6882Q653.9212 279.42847 653.70026 280.20184Q653.4793 280.95316 652.9048 281.52768Q651.98773 282.4447 650.82764 282.43365Q649.66754 282.4005 648.55164 281.2846ZM649.31396 280.52228Q650.1537 281.36194 650.9381 281.4172Q651.73364 281.4614 652.2861 280.90897Q652.84955 280.3455 652.7943 279.56104Q652.739 278.77658 651.87726 277.9148Q651.05963 277.09723 650.26416 277.053Q649.47974 276.99777 648.9273 277.5502Q648.3749 278.10263 648.41907 278.89813Q648.46326 279.67154 649.31396 280.52228ZM657.2358 273.7716L658.06445 273.14185Q658.6942 274.01468 658.6279 274.94275Q658.56165 275.87082 657.84344 276.589Q656.9375 277.49496 655.7995 277.46182Q654.6615 277.4066 653.55664 276.30173Q652.84955 275.5946 652.5512 274.83228Q652.2529 274.04782 652.4628 273.30756Q652.6838 272.55627 653.2583 271.98175Q653.96545 271.27463 654.783 271.18625Q655.6006 271.07574 656.40717 271.61713L655.78845 272.45682Q655.2471 272.11432 654.7609 272.1585Q654.26373 272.19165 653.88806 272.56732Q653.3246 273.1308 653.3799 273.89313Q653.4241 274.64444 654.2969 275.51727Q655.19183 276.4122 655.93207 276.46744Q656.6723 276.5227 657.2137 275.98132Q657.65564 275.53937 657.67773 274.98694Q657.7109 274.42346 657.2358 273.7716Z" fill-rule="nonzero"/></svg>